%TF.GenerationSoftware,KiCad,Pcbnew,8.0.4*%
%TF.CreationDate,2024-09-23T22:15:34+08:00*%
%TF.ProjectId,Passive PCB,50617373-6976-4652-9050-43422e6b6963,rev?*%
%TF.SameCoordinates,Original*%
%TF.FileFunction,Copper,L1,Top*%
%TF.FilePolarity,Positive*%
%FSLAX46Y46*%
G04 Gerber Fmt 4.6, Leading zero omitted, Abs format (unit mm)*
G04 Created by KiCad (PCBNEW 8.0.4) date 2024-09-23 22:15:34*
%MOMM*%
%LPD*%
G01*
G04 APERTURE LIST*
%TA.AperFunction,ComponentPad*%
%ADD10R,1.700000X1.700000*%
%TD*%
%TA.AperFunction,ComponentPad*%
%ADD11O,1.700000X1.700000*%
%TD*%
%TA.AperFunction,ViaPad*%
%ADD12C,0.600000*%
%TD*%
%TA.AperFunction,Conductor*%
%ADD13C,0.200000*%
%TD*%
G04 APERTURE END LIST*
D10*
%TO.P,Addr_In,1,Addr_0*%
%TO.N,Net-(J1-Addr_0)*%
X124100000Y-57300000D03*
D11*
%TO.P,Addr_In,2,Addr_1*%
%TO.N,Net-(J1-Addr_1)*%
X126640000Y-57300000D03*
%TO.P,Addr_In,3,Addr_2*%
%TO.N,Net-(J1-Addr_2)*%
X124100000Y-59840000D03*
%TO.P,Addr_In,4,Addr_3*%
%TO.N,Net-(J1-Addr_3)*%
X126640000Y-59840000D03*
%TO.P,Addr_In,5,Addr_4*%
%TO.N,Net-(J1-Addr_4)*%
X124100000Y-62380000D03*
%TO.P,Addr_In,6,Addr_5*%
%TO.N,Net-(J1-Addr_5)*%
X126640000Y-62380000D03*
%TO.P,Addr_In,7,Addr_6*%
%TO.N,Net-(J1-Addr_6)*%
X124100000Y-64920000D03*
%TO.P,Addr_In,8,Addr_7*%
%TO.N,Net-(J1-Addr_7)*%
X126640000Y-64920000D03*
%TO.P,Addr_In,9,Addr_8*%
%TO.N,Net-(J1-Addr_8)*%
X124100000Y-67460000D03*
%TO.P,Addr_In,10,Addr_9*%
%TO.N,Net-(J1-Addr_9)*%
X126640000Y-67460000D03*
%TO.P,Addr_In,11,Addr_10*%
%TO.N,Net-(J1-Addr_10)*%
X124100000Y-70000000D03*
%TO.P,Addr_In,12,Addr_11*%
%TO.N,Net-(J1-Addr_11)*%
X126640000Y-70000000D03*
%TO.P,Addr_In,13,Addr_12*%
%TO.N,Net-(J1-Addr_12)*%
X124100000Y-72540000D03*
%TO.P,Addr_In,14,Addr_13*%
%TO.N,Net-(J1-Addr_13)*%
X126640000Y-72540000D03*
%TO.P,Addr_In,15,Addr_14*%
%TO.N,Net-(J1-Addr_14)*%
X124100000Y-75080000D03*
%TO.P,Addr_In,16,Addr_15*%
%TO.N,Net-(J1-Addr_15)*%
X126640000Y-75080000D03*
%TO.P,Addr_In,17,Addr_16*%
%TO.N,Net-(J1-Addr_16)*%
X124100000Y-77620000D03*
%TO.P,Addr_In,18,Addr_17*%
%TO.N,Net-(J1-Addr_17)*%
X126640000Y-77620000D03*
%TO.P,Addr_In,19,Addr_18*%
%TO.N,Net-(J1-Addr_18)*%
X124100000Y-80160000D03*
%TO.P,Addr_In,20,Addr_19*%
%TO.N,Net-(J1-Addr_19)*%
X126640000Y-80160000D03*
%TD*%
D10*
%TO.P,Data_In,1,Data_0*%
%TO.N,Net-(J2-Data_0)*%
X124096000Y-94400000D03*
D11*
%TO.P,Data_In,2,Data_1*%
%TO.N,Net-(J2-Data_1)*%
X126636000Y-94400000D03*
%TO.P,Data_In,3,Data_2*%
%TO.N,Net-(J2-Data_2)*%
X124096000Y-96940000D03*
%TO.P,Data_In,4,Data_3*%
%TO.N,Net-(J2-Data_3)*%
X126636000Y-96940000D03*
%TO.P,Data_In,5,Data_4*%
%TO.N,Net-(J2-Data_4)*%
X124096000Y-99480000D03*
%TO.P,Data_In,6,Data_5*%
%TO.N,Net-(J2-Data_5)*%
X126636000Y-99480000D03*
%TO.P,Data_In,7,Data_6*%
%TO.N,Net-(J2-Data_6)*%
X124096000Y-102020000D03*
%TO.P,Data_In,8,Data_7*%
%TO.N,Net-(J2-Data_7)*%
X126636000Y-102020000D03*
%TO.P,Data_In,9,Data_8*%
%TO.N,Net-(J2-Data_8)*%
X124096000Y-104560000D03*
%TO.P,Data_In,10,Data_9*%
%TO.N,Net-(J2-Data_9)*%
X126636000Y-104560000D03*
%TO.P,Data_In,11,Data_10*%
%TO.N,Net-(J2-Data_10)*%
X124096000Y-107100000D03*
%TO.P,Data_In,12,Data_11*%
%TO.N,Net-(J2-Data_11)*%
X126636000Y-107100000D03*
%TO.P,Data_In,13,Data_12*%
%TO.N,Net-(J2-Data_12)*%
X124096000Y-109640000D03*
%TO.P,Data_In,14,Data_13*%
%TO.N,Net-(J2-Data_13)*%
X126636000Y-109640000D03*
%TO.P,Data_In,15,Data_14*%
%TO.N,Net-(J2-Data_14)*%
X124096000Y-112180000D03*
%TO.P,Data_In,16,Data_15*%
%TO.N,Net-(J2-Data_15)*%
X126636000Y-112180000D03*
%TD*%
D10*
%TO.P,MRAM,1,NC*%
%TO.N,unconnected-(U1-NC-Pad1)*%
X165286200Y-67512600D03*
D11*
%TO.P,MRAM,2,A19*%
%TO.N,Net-(J1-Addr_19)*%
X165286200Y-70052600D03*
%TO.P,MRAM,3,A0*%
%TO.N,Net-(J1-Addr_0)*%
X165286200Y-72592600D03*
%TO.P,MRAM,4,A1*%
%TO.N,Net-(J1-Addr_1)*%
X165286200Y-75132600D03*
%TO.P,MRAM,5,A2*%
%TO.N,Net-(J1-Addr_2)*%
X165286200Y-77672600D03*
%TO.P,MRAM,6,A3*%
%TO.N,Net-(J1-Addr_3)*%
X165286200Y-80212600D03*
%TO.P,MRAM,7,A4*%
%TO.N,Net-(J1-Addr_4)*%
X165286200Y-82752600D03*
%TO.P,MRAM,8,E_Active_Low*%
%TO.N,Net-(J3-Chip_en)*%
X165286200Y-85292600D03*
%TO.P,MRAM,9,DQ0*%
%TO.N,Net-(J2-Data_0)*%
X165286200Y-87832600D03*
%TO.P,MRAM,10,DQ1*%
%TO.N,Net-(J2-Data_1)*%
X165286200Y-90372600D03*
%TO.P,MRAM,11,DQ2*%
%TO.N,Net-(J2-Data_2)*%
X165286200Y-92912600D03*
%TO.P,MRAM,12,DQ3*%
%TO.N,Net-(J2-Data_3)*%
X165286200Y-95452600D03*
%TO.P,MRAM,13,Vdd*%
%TO.N,Net-(J3-VCC)*%
X165286200Y-97992600D03*
%TO.P,MRAM,14,Vss*%
%TO.N,Net-(J3-Ground)*%
X165286200Y-100532600D03*
%TO.P,MRAM,15,DQ4*%
%TO.N,Net-(J2-Data_4)*%
X165286200Y-103072600D03*
%TO.P,MRAM,16,DQ5*%
%TO.N,Net-(J2-Data_5)*%
X165286200Y-105612600D03*
%TO.P,MRAM,17,DQ6*%
%TO.N,Net-(J2-Data_6)*%
X165286200Y-108152600D03*
%TO.P,MRAM,18,DQ7*%
%TO.N,Net-(J2-Data_7)*%
X165286200Y-110692600D03*
%TO.P,MRAM,19,W_Active_Low*%
%TO.N,Net-(J3-Write_en)*%
X165286200Y-113232600D03*
%TO.P,MRAM,20,A5*%
%TO.N,Net-(J1-Addr_5)*%
X165286200Y-115772600D03*
%TO.P,MRAM,21,A6*%
%TO.N,Net-(J1-Addr_6)*%
X165286200Y-118312600D03*
%TO.P,MRAM,22,A7*%
%TO.N,Net-(J1-Addr_7)*%
X165286200Y-120852600D03*
%TO.P,MRAM,23,A8*%
%TO.N,Net-(J1-Addr_8)*%
X165286200Y-123392600D03*
%TO.P,MRAM,24,A9*%
%TO.N,Net-(J1-Addr_9)*%
X165286200Y-125932600D03*
%TO.P,MRAM,25,NC*%
%TO.N,unconnected-(U1-NC-Pad25)*%
X165286200Y-128472600D03*
%TO.P,MRAM,26,NC*%
%TO.N,unconnected-(U1-NC-Pad26)*%
X165286200Y-131012600D03*
%TO.P,MRAM,27,NC*%
%TO.N,unconnected-(U1-NC-Pad27)*%
X165286200Y-133552600D03*
%TO.P,MRAM,28,NC*%
%TO.N,unconnected-(U1-NC-Pad28)*%
X180525720Y-133553560D03*
%TO.P,MRAM,29,NC*%
%TO.N,unconnected-(U1-NC-Pad29)*%
X180525720Y-131013560D03*
%TO.P,MRAM,30,NC*%
%TO.N,unconnected-(U1-NC-Pad30)*%
X180525720Y-128473560D03*
%TO.P,MRAM,31,A10*%
%TO.N,Net-(J1-Addr_10)*%
X180525720Y-125933560D03*
%TO.P,MRAM,32,A11*%
%TO.N,Net-(J1-Addr_11)*%
X180525720Y-123393560D03*
%TO.P,MRAM,33,A12*%
%TO.N,Net-(J1-Addr_12)*%
X180525720Y-120853560D03*
%TO.P,MRAM,34,A13*%
%TO.N,Net-(J1-Addr_13)*%
X180525720Y-118313560D03*
%TO.P,MRAM,35,A14*%
%TO.N,Net-(J1-Addr_14)*%
X180525720Y-115773560D03*
%TO.P,MRAM,36,DC*%
%TO.N,unconnected-(U1-DC-Pad36)*%
X180525720Y-113233560D03*
%TO.P,MRAM,37,DQ8*%
%TO.N,Net-(J2-Data_8)*%
X180525720Y-110693560D03*
%TO.P,MRAM,38,DQ9*%
%TO.N,Net-(J2-Data_9)*%
X180525720Y-108153560D03*
%TO.P,MRAM,39,DQ10*%
%TO.N,Net-(J2-Data_10)*%
X180525720Y-105613560D03*
%TO.P,MRAM,40,DQ11*%
%TO.N,Net-(J2-Data_11)*%
X180525720Y-103073560D03*
%TO.P,MRAM,41,Vdd*%
%TO.N,Net-(J3-VCC)*%
X180525720Y-100533560D03*
%TO.P,MRAM,42,Vss*%
%TO.N,Net-(J3-Ground)*%
X180525720Y-97993560D03*
%TO.P,MRAM,43,DQ12*%
%TO.N,Net-(J2-Data_12)*%
X180525720Y-95453560D03*
%TO.P,MRAM,44,DQ13*%
%TO.N,Net-(J2-Data_13)*%
X180525720Y-92913560D03*
%TO.P,MRAM,45,DQ14*%
%TO.N,Net-(J2-Data_14)*%
X180525720Y-90373560D03*
%TO.P,MRAM,46,DQ15*%
%TO.N,Net-(J2-Data_15)*%
X180525720Y-87833560D03*
%TO.P,MRAM,47,LB_Active_Low*%
%TO.N,Net-(J3-Lower_Byte_en)*%
X180525720Y-85293560D03*
%TO.P,MRAM,48,UB_Active_Low*%
%TO.N,Net-(J3-Upper_byte_en)*%
X180525720Y-82753560D03*
%TO.P,MRAM,49,R/G__Active_Low*%
%TO.N,Net-(J3-Read_en)*%
X180525720Y-80213560D03*
%TO.P,MRAM,50,A15*%
%TO.N,Net-(J1-Addr_15)*%
X180525720Y-77673560D03*
%TO.P,MRAM,51,A16*%
%TO.N,Net-(J1-Addr_16)*%
X180525720Y-75133560D03*
%TO.P,MRAM,52,A17*%
%TO.N,Net-(J1-Addr_17)*%
X180525720Y-72593560D03*
%TO.P,MRAM,53,A18*%
%TO.N,Net-(J1-Addr_18)*%
X180525720Y-70053560D03*
D10*
%TO.P,MRAM,54,NC*%
%TO.N,unconnected-(U1-NC-Pad54)*%
X180525720Y-67513560D03*
%TD*%
%TO.P,Ctrl_In,1,Chip_en*%
%TO.N,Net-(J3-Chip_en)*%
X125500000Y-125950000D03*
D11*
%TO.P,Ctrl_In,2,Read_en*%
%TO.N,Net-(J3-Read_en)*%
X125500000Y-128490000D03*
%TO.P,Ctrl_In,3,Write_en*%
%TO.N,Net-(J3-Write_en)*%
X125500000Y-131030000D03*
%TO.P,Ctrl_In,4,Lower_Byte_en*%
%TO.N,Net-(J3-Lower_Byte_en)*%
X125500000Y-133570000D03*
%TO.P,Ctrl_In,5,Upper_byte_en*%
%TO.N,Net-(J3-Upper_byte_en)*%
X125500000Y-136110000D03*
%TO.P,Ctrl_In,6,VCC*%
%TO.N,Net-(J3-VCC)*%
X125500000Y-138650000D03*
%TO.P,Ctrl_In,7,Ground*%
%TO.N,Net-(J3-Ground)*%
X125500000Y-141190000D03*
%TO.P,Ctrl_In,8,Not_Connected*%
%TO.N,unconnected-(J3-Not_Connected-Pad8)*%
X125500000Y-143730000D03*
%TD*%
D12*
%TO.N,Net-(J1-Addr_16)*%
X135300000Y-76400000D03*
%TO.N,Net-(J1-Addr_19)*%
X135300000Y-80160000D03*
%TO.N,Net-(J1-Addr_13)*%
X135300000Y-72500000D03*
X177200000Y-62400000D03*
%TO.N,Net-(J1-Addr_11)*%
X135300000Y-70000000D03*
X175985421Y-61000000D03*
%TO.N,Net-(J1-Addr_14)*%
X177800000Y-63100000D03*
X135300000Y-73700000D03*
%TO.N,Net-(J1-Addr_15)*%
X135300000Y-75000000D03*
%TO.N,Net-(J1-Addr_17)*%
X135300000Y-77620000D03*
%TO.N,Net-(J1-Addr_12)*%
X135300000Y-71400000D03*
X176600000Y-61600000D03*
%TO.N,Net-(J1-Addr_10)*%
X135300000Y-68850000D03*
X175400000Y-60400000D03*
%TO.N,Net-(J1-Addr_18)*%
X135300000Y-79010000D03*
%TO.N,Net-(J2-Data_5)*%
X135600000Y-105612600D03*
%TO.N,Net-(J2-Data_4)*%
X135600000Y-103072600D03*
%TO.N,Net-(J2-Data_6)*%
X135552600Y-108152600D03*
%TO.N,Net-(J2-Data_2)*%
X135300000Y-92900000D03*
%TO.N,Net-(J2-Data_1)*%
X135300000Y-90372600D03*
%TO.N,Net-(J2-Data_3)*%
X135300000Y-96940000D03*
%TO.N,Net-(J2-Data_7)*%
X135500000Y-110700000D03*
%TO.N,Net-(J3-Upper_byte_en)*%
X187600000Y-87400000D03*
%TO.N,Net-(J3-VCC)*%
X171500000Y-143100000D03*
%TO.N,Net-(J2-Data_0)*%
X135300000Y-87832600D03*
%TO.N,Net-(J3-Ground)*%
X173900000Y-98000000D03*
X173900000Y-104800000D03*
X173800000Y-143100000D03*
%TO.N,Net-(J3-Write_en)*%
X120200000Y-120200000D03*
%TO.N,Net-(J3-Lower_Byte_en)*%
X187000000Y-89700000D03*
%TO.N,Net-(J3-Chip_en)*%
X135300000Y-85300000D03*
%TD*%
D13*
%TO.N,Net-(J3-Upper_byte_en)*%
X129090000Y-139700000D02*
X185131372Y-139700000D01*
X185131372Y-139700000D02*
X187600000Y-137231372D01*
X125500000Y-136110000D02*
X129090000Y-139700000D01*
X187600000Y-137231372D02*
X187600000Y-87400000D01*
%TO.N,Net-(J1-Addr_5)*%
X126640000Y-62380000D02*
X141980000Y-62380000D01*
X144600000Y-95086400D02*
X165286200Y-115772600D01*
X141980000Y-62380000D02*
X144600000Y-65000000D01*
X144600000Y-65000000D02*
X144600000Y-95086400D01*
%TO.N,Net-(J1-Addr_16)*%
X135300000Y-76400000D02*
X126233654Y-76400000D01*
X126233654Y-76400000D02*
X125013654Y-77620000D01*
X125013654Y-77620000D02*
X124100000Y-77620000D01*
%TO.N,Net-(J1-Addr_8)*%
X140900000Y-68300000D02*
X140900000Y-99006400D01*
X124100000Y-67460000D02*
X125250000Y-66310000D01*
X138910000Y-66310000D02*
X140900000Y-68300000D01*
X140900000Y-99006400D02*
X165286200Y-123392600D01*
X125250000Y-66310000D02*
X138910000Y-66310000D01*
%TO.N,Net-(J1-Addr_19)*%
X135300000Y-80160000D02*
X126640000Y-80160000D01*
%TO.N,Net-(J1-Addr_13)*%
X177200000Y-62400000D02*
X177200000Y-114987840D01*
X135260000Y-72540000D02*
X135300000Y-72500000D01*
X126640000Y-72540000D02*
X135260000Y-72540000D01*
X177200000Y-114987840D02*
X180525720Y-118313560D01*
%TO.N,Net-(J1-Addr_4)*%
X125250000Y-61230000D02*
X143763600Y-61230000D01*
X143763600Y-61230000D02*
X165286200Y-82752600D01*
X124100000Y-62380000D02*
X125250000Y-61230000D01*
%TO.N,Net-(J1-Addr_11)*%
X175985421Y-118853261D02*
X180525720Y-123393560D01*
X126640000Y-70000000D02*
X135300000Y-70000000D01*
X175985421Y-61000000D02*
X175985421Y-118853261D01*
%TO.N,Net-(J1-Addr_14)*%
X177800000Y-113047840D02*
X180525720Y-115773560D01*
X125480000Y-73700000D02*
X135300000Y-73700000D01*
X177800000Y-63100000D02*
X177800000Y-113047840D01*
X124100000Y-75080000D02*
X125480000Y-73700000D01*
%TO.N,Net-(J1-Addr_9)*%
X126640000Y-67460000D02*
X137660000Y-67460000D01*
X139800000Y-100446400D02*
X165286200Y-125932600D01*
X138900000Y-68900000D02*
X139800000Y-69800000D01*
X138900000Y-68700000D02*
X138900000Y-68900000D01*
X137660000Y-67460000D02*
X138900000Y-68700000D01*
X139800000Y-69800000D02*
X139800000Y-100446400D01*
%TO.N,Net-(J1-Addr_6)*%
X140470000Y-63770000D02*
X143500000Y-66800000D01*
X124100000Y-64920000D02*
X125250000Y-63770000D01*
X143500000Y-66800000D02*
X143500000Y-96526400D01*
X143500000Y-96526400D02*
X165286200Y-118312600D01*
X125250000Y-63770000D02*
X140470000Y-63770000D01*
%TO.N,Net-(J1-Addr_15)*%
X126640000Y-75080000D02*
X135220000Y-75080000D01*
X135220000Y-75080000D02*
X135300000Y-75000000D01*
%TO.N,Net-(J1-Addr_17)*%
X135300000Y-77620000D02*
X126640000Y-77620000D01*
%TO.N,Net-(J1-Addr_12)*%
X125250000Y-71390000D02*
X135290000Y-71390000D01*
X124100000Y-72540000D02*
X125250000Y-71390000D01*
X135290000Y-71390000D02*
X135300000Y-71400000D01*
X176600000Y-116927840D02*
X180525720Y-120853560D01*
X176600000Y-61600000D02*
X176600000Y-116927840D01*
%TO.N,Net-(J1-Addr_10)*%
X175400000Y-60400000D02*
X175385421Y-60414579D01*
X175385421Y-120793261D02*
X180525720Y-125933560D01*
X135300000Y-68850000D02*
X125250000Y-68850000D01*
X175385421Y-60414579D02*
X175385421Y-120793261D01*
X125250000Y-68850000D02*
X124100000Y-70000000D01*
%TO.N,Net-(J1-Addr_3)*%
X145340000Y-59840000D02*
X145126800Y-60053200D01*
X145126800Y-60053200D02*
X165286200Y-80212600D01*
X126640000Y-59840000D02*
X145340000Y-59840000D01*
%TO.N,Net-(J1-Addr_1)*%
X147453600Y-57300000D02*
X165286200Y-75132600D01*
X126640000Y-57300000D02*
X147453600Y-57300000D01*
%TO.N,Net-(J1-Addr_2)*%
X124100000Y-59840000D02*
X125490000Y-58450000D01*
X125490000Y-58450000D02*
X146063600Y-58450000D01*
X146063600Y-58450000D02*
X165286200Y-77672600D01*
%TO.N,Net-(J1-Addr_7)*%
X126640000Y-64920000D02*
X139420000Y-64920000D01*
X142100000Y-97666400D02*
X165286200Y-120852600D01*
X139420000Y-64920000D02*
X142100000Y-67600000D01*
X142100000Y-67600000D02*
X142100000Y-97666400D01*
%TO.N,Net-(J1-Addr_18)*%
X135300000Y-79010000D02*
X125250000Y-79010000D01*
X125250000Y-79010000D02*
X124100000Y-80160000D01*
%TO.N,Net-(J2-Data_11)*%
X184300000Y-136197057D02*
X184300000Y-106847840D01*
X156436000Y-136900000D02*
X183597057Y-136900000D01*
X184300000Y-106847840D02*
X180525720Y-103073560D01*
X126636000Y-107100000D02*
X156436000Y-136900000D01*
X183597057Y-136900000D02*
X184300000Y-136197057D01*
%TO.N,Net-(J2-Data_5)*%
X135600000Y-105612600D02*
X135412600Y-105612600D01*
X135412600Y-105612600D02*
X129280000Y-99480000D01*
X129280000Y-99480000D02*
X126636000Y-99480000D01*
%TO.N,Net-(J2-Data_13)*%
X185100000Y-136865686D02*
X185100000Y-97487840D01*
X184265686Y-137700000D02*
X185100000Y-136865686D01*
X185100000Y-97487840D02*
X180525720Y-92913560D01*
X154696000Y-137700000D02*
X184265686Y-137700000D01*
X126636000Y-109640000D02*
X154696000Y-137700000D01*
%TO.N,Net-(J2-Data_8)*%
X183100000Y-113267840D02*
X180525720Y-110693560D01*
X183100000Y-135700000D02*
X183100000Y-113267840D01*
X159642346Y-135700000D02*
X183100000Y-135700000D01*
X125246000Y-103410000D02*
X127352346Y-103410000D01*
X124096000Y-104560000D02*
X125246000Y-103410000D01*
X127352346Y-103410000D02*
X159642346Y-135700000D01*
%TO.N,Net-(J2-Data_15)*%
X185900000Y-93207840D02*
X180525720Y-87833560D01*
X184597058Y-138500000D02*
X185900000Y-137197058D01*
X126636000Y-112180000D02*
X152956000Y-138500000D01*
X152956000Y-138500000D02*
X184597058Y-138500000D01*
X185900000Y-137197058D02*
X185900000Y-93207840D01*
%TO.N,Net-(J2-Data_12)*%
X156270314Y-137300000D02*
X184100000Y-137300000D01*
X184700000Y-136700000D02*
X184700000Y-99627840D01*
X124096000Y-109640000D02*
X125246000Y-108490000D01*
X184100000Y-137300000D02*
X184700000Y-136700000D01*
X125246000Y-108490000D02*
X127460314Y-108490000D01*
X184700000Y-99627840D02*
X180525720Y-95453560D01*
X127460314Y-108490000D02*
X156270314Y-137300000D01*
%TO.N,Net-(J2-Data_4)*%
X135372600Y-103072600D02*
X130630000Y-98330000D01*
X130630000Y-98330000D02*
X125246000Y-98330000D01*
X135600000Y-103072600D02*
X135372600Y-103072600D01*
X125246000Y-98330000D02*
X124096000Y-99480000D01*
%TO.N,Net-(J2-Data_10)*%
X183900000Y-108987840D02*
X180525720Y-105613560D01*
X183431371Y-136500000D02*
X183900000Y-136031371D01*
X125296000Y-105900000D02*
X127200000Y-105900000D01*
X127200000Y-105900000D02*
X157800000Y-136500000D01*
X157800000Y-136500000D02*
X183431371Y-136500000D01*
X124096000Y-107100000D02*
X125296000Y-105900000D01*
X183900000Y-136031371D02*
X183900000Y-108987840D01*
%TO.N,Net-(J2-Data_6)*%
X128270000Y-100870000D02*
X125246000Y-100870000D01*
X135552600Y-108152600D02*
X128270000Y-100870000D01*
X125246000Y-100870000D02*
X124096000Y-102020000D01*
%TO.N,Net-(J2-Data_2)*%
X129210000Y-95790000D02*
X125246000Y-95790000D01*
X132100000Y-92900000D02*
X129210000Y-95790000D01*
X125246000Y-95790000D02*
X124096000Y-96940000D01*
X135300000Y-92900000D02*
X132100000Y-92900000D01*
%TO.N,Net-(J2-Data_1)*%
X135300000Y-90372600D02*
X130663400Y-90372600D01*
X130663400Y-90372600D02*
X126636000Y-94400000D01*
%TO.N,Net-(J2-Data_3)*%
X135300000Y-96940000D02*
X126636000Y-96940000D01*
%TO.N,Net-(J2-Data_7)*%
X126636000Y-102020000D02*
X135316000Y-110700000D01*
X135316000Y-110700000D02*
X135500000Y-110700000D01*
%TO.N,Net-(J2-Data_14)*%
X185500000Y-137031372D02*
X185500000Y-95347840D01*
X184431372Y-138100000D02*
X185500000Y-137031372D01*
X154400000Y-138100000D02*
X184431372Y-138100000D01*
X125246000Y-111030000D02*
X127330000Y-111030000D01*
X124096000Y-112180000D02*
X125246000Y-111030000D01*
X185500000Y-95347840D02*
X180525720Y-90373560D01*
X127330000Y-111030000D02*
X154400000Y-138100000D01*
%TO.N,Net-(J2-Data_9)*%
X183500000Y-135865685D02*
X183500000Y-111127840D01*
X158176000Y-136100000D02*
X183265685Y-136100000D01*
X126636000Y-104560000D02*
X158176000Y-136100000D01*
X183265685Y-136100000D02*
X183500000Y-135865685D01*
X183500000Y-111127840D02*
X180525720Y-108153560D01*
%TO.N,Net-(J3-VCC)*%
X125500000Y-138650000D02*
X129950000Y-143100000D01*
X129950000Y-143100000D02*
X171500000Y-143100000D01*
%TO.N,Net-(J2-Data_0)*%
X130696000Y-87800000D02*
X124096000Y-94400000D01*
X135300000Y-87832600D02*
X135267400Y-87800000D01*
X135267400Y-87800000D02*
X130696000Y-87800000D01*
%TO.N,Net-(J3-Ground)*%
X173900000Y-104800000D02*
X173900000Y-98000000D01*
X167232600Y-100532600D02*
X165286200Y-100532600D01*
X171500000Y-104800000D02*
X167232600Y-100532600D01*
X173900000Y-104800000D02*
X171500000Y-104800000D01*
X173800000Y-145200000D02*
X173800000Y-143100000D01*
X125500000Y-141190000D02*
X129510000Y-145200000D01*
X129510000Y-145200000D02*
X173800000Y-145200000D01*
%TO.N,Net-(J3-Write_en)*%
X120200000Y-125730000D02*
X120200000Y-120200000D01*
X125500000Y-131030000D02*
X120200000Y-125730000D01*
%TO.N,Net-(J3-Lower_Byte_en)*%
X187000000Y-137265686D02*
X187000000Y-89700000D01*
X125500000Y-133570000D02*
X131230000Y-139300000D01*
X184965686Y-139300000D02*
X187000000Y-137265686D01*
X131230000Y-139300000D02*
X184965686Y-139300000D01*
%TO.N,Net-(J3-Read_en)*%
X184800000Y-138900000D02*
X186300000Y-137400000D01*
X135910000Y-138900000D02*
X184800000Y-138900000D01*
X125500000Y-128490000D02*
X135910000Y-138900000D01*
X186300000Y-85987840D02*
X180525720Y-80213560D01*
X186300000Y-137400000D02*
X186300000Y-85987840D01*
%TO.N,Net-(J3-Chip_en)*%
X135300000Y-85300000D02*
X130896000Y-85300000D01*
X122946000Y-93250000D02*
X122946000Y-123396000D01*
X130896000Y-85300000D02*
X122946000Y-93250000D01*
X122946000Y-123396000D02*
X125500000Y-125950000D01*
%TO.N,Net-(J1-Addr_0)*%
X160100000Y-67400000D02*
X160100000Y-67406400D01*
X148800000Y-56100000D02*
X160100000Y-67400000D01*
X124100000Y-57300000D02*
X125300000Y-56100000D01*
X125300000Y-56100000D02*
X148800000Y-56100000D01*
X160100000Y-67406400D02*
X165286200Y-72592600D01*
%TD*%
M02*
