%TF.GenerationSoftware,KiCad,Pcbnew,8.0.4*%
%TF.CreationDate,2024-09-23T22:15:34+08:00*%
%TF.ProjectId,Passive PCB,50617373-6976-4652-9050-43422e6b6963,rev?*%
%TF.SameCoordinates,Original*%
%TF.FileFunction,Legend,Top*%
%TF.FilePolarity,Positive*%
%FSLAX46Y46*%
G04 Gerber Fmt 4.6, Leading zero omitted, Abs format (unit mm)*
G04 Created by KiCad (PCBNEW 8.0.4) date 2024-09-23 22:15:34*
%MOMM*%
%LPD*%
G01*
G04 APERTURE LIST*
%ADD10C,0.150000*%
%ADD11C,0.100000*%
%ADD12C,0.120000*%
G04 APERTURE END LIST*
D10*
X129084398Y-67969819D02*
X129274874Y-67969819D01*
X129274874Y-67969819D02*
X129370112Y-67922200D01*
X129370112Y-67922200D02*
X129417731Y-67874580D01*
X129417731Y-67874580D02*
X129512969Y-67731723D01*
X129512969Y-67731723D02*
X129560588Y-67541247D01*
X129560588Y-67541247D02*
X129560588Y-67160295D01*
X129560588Y-67160295D02*
X129512969Y-67065057D01*
X129512969Y-67065057D02*
X129465350Y-67017438D01*
X129465350Y-67017438D02*
X129370112Y-66969819D01*
X129370112Y-66969819D02*
X129179636Y-66969819D01*
X129179636Y-66969819D02*
X129084398Y-67017438D01*
X129084398Y-67017438D02*
X129036779Y-67065057D01*
X129036779Y-67065057D02*
X128989160Y-67160295D01*
X128989160Y-67160295D02*
X128989160Y-67398390D01*
X128989160Y-67398390D02*
X129036779Y-67493628D01*
X129036779Y-67493628D02*
X129084398Y-67541247D01*
X129084398Y-67541247D02*
X129179636Y-67588866D01*
X129179636Y-67588866D02*
X129370112Y-67588866D01*
X129370112Y-67588866D02*
X129465350Y-67541247D01*
X129465350Y-67541247D02*
X129512969Y-67493628D01*
X129512969Y-67493628D02*
X129560588Y-67398390D01*
X129360588Y-75669819D02*
X128789160Y-75669819D01*
X129074874Y-75669819D02*
X129074874Y-74669819D01*
X129074874Y-74669819D02*
X128979636Y-74812676D01*
X128979636Y-74812676D02*
X128884398Y-74907914D01*
X128884398Y-74907914D02*
X128789160Y-74955533D01*
X130265350Y-74669819D02*
X129789160Y-74669819D01*
X129789160Y-74669819D02*
X129741541Y-75146009D01*
X129741541Y-75146009D02*
X129789160Y-75098390D01*
X129789160Y-75098390D02*
X129884398Y-75050771D01*
X129884398Y-75050771D02*
X130122493Y-75050771D01*
X130122493Y-75050771D02*
X130217731Y-75098390D01*
X130217731Y-75098390D02*
X130265350Y-75146009D01*
X130265350Y-75146009D02*
X130312969Y-75241247D01*
X130312969Y-75241247D02*
X130312969Y-75479342D01*
X130312969Y-75479342D02*
X130265350Y-75574580D01*
X130265350Y-75574580D02*
X130217731Y-75622200D01*
X130217731Y-75622200D02*
X130122493Y-75669819D01*
X130122493Y-75669819D02*
X129884398Y-75669819D01*
X129884398Y-75669819D02*
X129789160Y-75622200D01*
X129789160Y-75622200D02*
X129741541Y-75574580D01*
X121765350Y-99503152D02*
X121765350Y-100169819D01*
X121527255Y-99122200D02*
X121289160Y-99836485D01*
X121289160Y-99836485D02*
X121908207Y-99836485D01*
X129260588Y-110269819D02*
X128689160Y-110269819D01*
X128974874Y-110269819D02*
X128974874Y-109269819D01*
X128974874Y-109269819D02*
X128879636Y-109412676D01*
X128879636Y-109412676D02*
X128784398Y-109507914D01*
X128784398Y-109507914D02*
X128689160Y-109555533D01*
X129593922Y-109269819D02*
X130212969Y-109269819D01*
X130212969Y-109269819D02*
X129879636Y-109650771D01*
X129879636Y-109650771D02*
X130022493Y-109650771D01*
X130022493Y-109650771D02*
X130117731Y-109698390D01*
X130117731Y-109698390D02*
X130165350Y-109746009D01*
X130165350Y-109746009D02*
X130212969Y-109841247D01*
X130212969Y-109841247D02*
X130212969Y-110079342D01*
X130212969Y-110079342D02*
X130165350Y-110174580D01*
X130165350Y-110174580D02*
X130117731Y-110222200D01*
X130117731Y-110222200D02*
X130022493Y-110269819D01*
X130022493Y-110269819D02*
X129736779Y-110269819D01*
X129736779Y-110269819D02*
X129641541Y-110222200D01*
X129641541Y-110222200D02*
X129593922Y-110174580D01*
X128841541Y-101569819D02*
X129508207Y-101569819D01*
X129508207Y-101569819D02*
X129079636Y-102569819D01*
X129360588Y-73069819D02*
X128789160Y-73069819D01*
X129074874Y-73069819D02*
X129074874Y-72069819D01*
X129074874Y-72069819D02*
X128979636Y-72212676D01*
X128979636Y-72212676D02*
X128884398Y-72307914D01*
X128884398Y-72307914D02*
X128789160Y-72355533D01*
X129693922Y-72069819D02*
X130312969Y-72069819D01*
X130312969Y-72069819D02*
X129979636Y-72450771D01*
X129979636Y-72450771D02*
X130122493Y-72450771D01*
X130122493Y-72450771D02*
X130217731Y-72498390D01*
X130217731Y-72498390D02*
X130265350Y-72546009D01*
X130265350Y-72546009D02*
X130312969Y-72641247D01*
X130312969Y-72641247D02*
X130312969Y-72879342D01*
X130312969Y-72879342D02*
X130265350Y-72974580D01*
X130265350Y-72974580D02*
X130217731Y-73022200D01*
X130217731Y-73022200D02*
X130122493Y-73069819D01*
X130122493Y-73069819D02*
X129836779Y-73069819D01*
X129836779Y-73069819D02*
X129741541Y-73022200D01*
X129741541Y-73022200D02*
X129693922Y-72974580D01*
X121160588Y-73069819D02*
X120589160Y-73069819D01*
X120874874Y-73069819D02*
X120874874Y-72069819D01*
X120874874Y-72069819D02*
X120779636Y-72212676D01*
X120779636Y-72212676D02*
X120684398Y-72307914D01*
X120684398Y-72307914D02*
X120589160Y-72355533D01*
X121541541Y-72165057D02*
X121589160Y-72117438D01*
X121589160Y-72117438D02*
X121684398Y-72069819D01*
X121684398Y-72069819D02*
X121922493Y-72069819D01*
X121922493Y-72069819D02*
X122017731Y-72117438D01*
X122017731Y-72117438D02*
X122065350Y-72165057D01*
X122065350Y-72165057D02*
X122112969Y-72260295D01*
X122112969Y-72260295D02*
X122112969Y-72355533D01*
X122112969Y-72355533D02*
X122065350Y-72498390D01*
X122065350Y-72498390D02*
X121493922Y-73069819D01*
X121493922Y-73069819D02*
X122112969Y-73069819D01*
X121765350Y-62203152D02*
X121765350Y-62869819D01*
X121527255Y-61822200D02*
X121289160Y-62536485D01*
X121289160Y-62536485D02*
X121908207Y-62536485D01*
X121160588Y-78069819D02*
X120589160Y-78069819D01*
X120874874Y-78069819D02*
X120874874Y-77069819D01*
X120874874Y-77069819D02*
X120779636Y-77212676D01*
X120779636Y-77212676D02*
X120684398Y-77307914D01*
X120684398Y-77307914D02*
X120589160Y-77355533D01*
X122017731Y-77069819D02*
X121827255Y-77069819D01*
X121827255Y-77069819D02*
X121732017Y-77117438D01*
X121732017Y-77117438D02*
X121684398Y-77165057D01*
X121684398Y-77165057D02*
X121589160Y-77307914D01*
X121589160Y-77307914D02*
X121541541Y-77498390D01*
X121541541Y-77498390D02*
X121541541Y-77879342D01*
X121541541Y-77879342D02*
X121589160Y-77974580D01*
X121589160Y-77974580D02*
X121636779Y-78022200D01*
X121636779Y-78022200D02*
X121732017Y-78069819D01*
X121732017Y-78069819D02*
X121922493Y-78069819D01*
X121922493Y-78069819D02*
X122017731Y-78022200D01*
X122017731Y-78022200D02*
X122065350Y-77974580D01*
X122065350Y-77974580D02*
X122112969Y-77879342D01*
X122112969Y-77879342D02*
X122112969Y-77641247D01*
X122112969Y-77641247D02*
X122065350Y-77546009D01*
X122065350Y-77546009D02*
X122017731Y-77498390D01*
X122017731Y-77498390D02*
X121922493Y-77450771D01*
X121922493Y-77450771D02*
X121732017Y-77450771D01*
X121732017Y-77450771D02*
X121636779Y-77498390D01*
X121636779Y-77498390D02*
X121589160Y-77546009D01*
X121589160Y-77546009D02*
X121541541Y-77641247D01*
X129560588Y-57869819D02*
X128989160Y-57869819D01*
X129274874Y-57869819D02*
X129274874Y-56869819D01*
X129274874Y-56869819D02*
X129179636Y-57012676D01*
X129179636Y-57012676D02*
X129084398Y-57107914D01*
X129084398Y-57107914D02*
X128989160Y-57155533D01*
X129260588Y-112869819D02*
X128689160Y-112869819D01*
X128974874Y-112869819D02*
X128974874Y-111869819D01*
X128974874Y-111869819D02*
X128879636Y-112012676D01*
X128879636Y-112012676D02*
X128784398Y-112107914D01*
X128784398Y-112107914D02*
X128689160Y-112155533D01*
X130165350Y-111869819D02*
X129689160Y-111869819D01*
X129689160Y-111869819D02*
X129641541Y-112346009D01*
X129641541Y-112346009D02*
X129689160Y-112298390D01*
X129689160Y-112298390D02*
X129784398Y-112250771D01*
X129784398Y-112250771D02*
X130022493Y-112250771D01*
X130022493Y-112250771D02*
X130117731Y-112298390D01*
X130117731Y-112298390D02*
X130165350Y-112346009D01*
X130165350Y-112346009D02*
X130212969Y-112441247D01*
X130212969Y-112441247D02*
X130212969Y-112679342D01*
X130212969Y-112679342D02*
X130165350Y-112774580D01*
X130165350Y-112774580D02*
X130117731Y-112822200D01*
X130117731Y-112822200D02*
X130022493Y-112869819D01*
X130022493Y-112869819D02*
X129784398Y-112869819D01*
X129784398Y-112869819D02*
X129689160Y-112822200D01*
X129689160Y-112822200D02*
X129641541Y-112774580D01*
X121336779Y-144269819D02*
X121336779Y-143269819D01*
X121336779Y-143269819D02*
X121908207Y-144269819D01*
X121908207Y-144269819D02*
X121908207Y-143269819D01*
X122955826Y-144174580D02*
X122908207Y-144222200D01*
X122908207Y-144222200D02*
X122765350Y-144269819D01*
X122765350Y-144269819D02*
X122670112Y-144269819D01*
X122670112Y-144269819D02*
X122527255Y-144222200D01*
X122527255Y-144222200D02*
X122432017Y-144126961D01*
X122432017Y-144126961D02*
X122384398Y-144031723D01*
X122384398Y-144031723D02*
X122336779Y-143841247D01*
X122336779Y-143841247D02*
X122336779Y-143698390D01*
X122336779Y-143698390D02*
X122384398Y-143507914D01*
X122384398Y-143507914D02*
X122432017Y-143412676D01*
X122432017Y-143412676D02*
X122527255Y-143317438D01*
X122527255Y-143317438D02*
X122670112Y-143269819D01*
X122670112Y-143269819D02*
X122765350Y-143269819D01*
X122765350Y-143269819D02*
X122908207Y-143317438D01*
X122908207Y-143317438D02*
X122955826Y-143365057D01*
X128841541Y-96469819D02*
X129460588Y-96469819D01*
X129460588Y-96469819D02*
X129127255Y-96850771D01*
X129127255Y-96850771D02*
X129270112Y-96850771D01*
X129270112Y-96850771D02*
X129365350Y-96898390D01*
X129365350Y-96898390D02*
X129412969Y-96946009D01*
X129412969Y-96946009D02*
X129460588Y-97041247D01*
X129460588Y-97041247D02*
X129460588Y-97279342D01*
X129460588Y-97279342D02*
X129412969Y-97374580D01*
X129412969Y-97374580D02*
X129365350Y-97422200D01*
X129365350Y-97422200D02*
X129270112Y-97469819D01*
X129270112Y-97469819D02*
X128984398Y-97469819D01*
X128984398Y-97469819D02*
X128889160Y-97422200D01*
X128889160Y-97422200D02*
X128841541Y-97374580D01*
X120593922Y-138169819D02*
X120927255Y-139169819D01*
X120927255Y-139169819D02*
X121260588Y-138169819D01*
X122022493Y-139122200D02*
X121927255Y-139169819D01*
X121927255Y-139169819D02*
X121736779Y-139169819D01*
X121736779Y-139169819D02*
X121641541Y-139122200D01*
X121641541Y-139122200D02*
X121593922Y-139074580D01*
X121593922Y-139074580D02*
X121546303Y-138979342D01*
X121546303Y-138979342D02*
X121546303Y-138693628D01*
X121546303Y-138693628D02*
X121593922Y-138598390D01*
X121593922Y-138598390D02*
X121641541Y-138550771D01*
X121641541Y-138550771D02*
X121736779Y-138503152D01*
X121736779Y-138503152D02*
X121927255Y-138503152D01*
X121927255Y-138503152D02*
X122022493Y-138550771D01*
X122879636Y-139122200D02*
X122784398Y-139169819D01*
X122784398Y-139169819D02*
X122593922Y-139169819D01*
X122593922Y-139169819D02*
X122498684Y-139122200D01*
X122498684Y-139122200D02*
X122451065Y-139074580D01*
X122451065Y-139074580D02*
X122403446Y-138979342D01*
X122403446Y-138979342D02*
X122403446Y-138693628D01*
X122403446Y-138693628D02*
X122451065Y-138598390D01*
X122451065Y-138598390D02*
X122498684Y-138550771D01*
X122498684Y-138550771D02*
X122593922Y-138503152D01*
X122593922Y-138503152D02*
X122784398Y-138503152D01*
X122784398Y-138503152D02*
X122879636Y-138550771D01*
X121160588Y-107869819D02*
X120589160Y-107869819D01*
X120874874Y-107869819D02*
X120874874Y-106869819D01*
X120874874Y-106869819D02*
X120779636Y-107012676D01*
X120779636Y-107012676D02*
X120684398Y-107107914D01*
X120684398Y-107107914D02*
X120589160Y-107155533D01*
X121779636Y-106869819D02*
X121874874Y-106869819D01*
X121874874Y-106869819D02*
X121970112Y-106917438D01*
X121970112Y-106917438D02*
X122017731Y-106965057D01*
X122017731Y-106965057D02*
X122065350Y-107060295D01*
X122065350Y-107060295D02*
X122112969Y-107250771D01*
X122112969Y-107250771D02*
X122112969Y-107488866D01*
X122112969Y-107488866D02*
X122065350Y-107679342D01*
X122065350Y-107679342D02*
X122017731Y-107774580D01*
X122017731Y-107774580D02*
X121970112Y-107822200D01*
X121970112Y-107822200D02*
X121874874Y-107869819D01*
X121874874Y-107869819D02*
X121779636Y-107869819D01*
X121779636Y-107869819D02*
X121684398Y-107822200D01*
X121684398Y-107822200D02*
X121636779Y-107774580D01*
X121636779Y-107774580D02*
X121589160Y-107679342D01*
X121589160Y-107679342D02*
X121541541Y-107488866D01*
X121541541Y-107488866D02*
X121541541Y-107250771D01*
X121541541Y-107250771D02*
X121589160Y-107060295D01*
X121589160Y-107060295D02*
X121636779Y-106965057D01*
X121636779Y-106965057D02*
X121684398Y-106917438D01*
X121684398Y-106917438D02*
X121779636Y-106869819D01*
X121527255Y-94169819D02*
X121622493Y-94169819D01*
X121622493Y-94169819D02*
X121717731Y-94217438D01*
X121717731Y-94217438D02*
X121765350Y-94265057D01*
X121765350Y-94265057D02*
X121812969Y-94360295D01*
X121812969Y-94360295D02*
X121860588Y-94550771D01*
X121860588Y-94550771D02*
X121860588Y-94788866D01*
X121860588Y-94788866D02*
X121812969Y-94979342D01*
X121812969Y-94979342D02*
X121765350Y-95074580D01*
X121765350Y-95074580D02*
X121717731Y-95122200D01*
X121717731Y-95122200D02*
X121622493Y-95169819D01*
X121622493Y-95169819D02*
X121527255Y-95169819D01*
X121527255Y-95169819D02*
X121432017Y-95122200D01*
X121432017Y-95122200D02*
X121384398Y-95074580D01*
X121384398Y-95074580D02*
X121336779Y-94979342D01*
X121336779Y-94979342D02*
X121289160Y-94788866D01*
X121289160Y-94788866D02*
X121289160Y-94550771D01*
X121289160Y-94550771D02*
X121336779Y-94360295D01*
X121336779Y-94360295D02*
X121384398Y-94265057D01*
X121384398Y-94265057D02*
X121432017Y-94217438D01*
X121432017Y-94217438D02*
X121527255Y-94169819D01*
X129360588Y-78069819D02*
X128789160Y-78069819D01*
X129074874Y-78069819D02*
X129074874Y-77069819D01*
X129074874Y-77069819D02*
X128979636Y-77212676D01*
X128979636Y-77212676D02*
X128884398Y-77307914D01*
X128884398Y-77307914D02*
X128789160Y-77355533D01*
X129693922Y-77069819D02*
X130360588Y-77069819D01*
X130360588Y-77069819D02*
X129932017Y-78069819D01*
X117708207Y-128969819D02*
X117374874Y-128493628D01*
X117136779Y-128969819D02*
X117136779Y-127969819D01*
X117136779Y-127969819D02*
X117517731Y-127969819D01*
X117517731Y-127969819D02*
X117612969Y-128017438D01*
X117612969Y-128017438D02*
X117660588Y-128065057D01*
X117660588Y-128065057D02*
X117708207Y-128160295D01*
X117708207Y-128160295D02*
X117708207Y-128303152D01*
X117708207Y-128303152D02*
X117660588Y-128398390D01*
X117660588Y-128398390D02*
X117612969Y-128446009D01*
X117612969Y-128446009D02*
X117517731Y-128493628D01*
X117517731Y-128493628D02*
X117136779Y-128493628D01*
X118517731Y-128922200D02*
X118422493Y-128969819D01*
X118422493Y-128969819D02*
X118232017Y-128969819D01*
X118232017Y-128969819D02*
X118136779Y-128922200D01*
X118136779Y-128922200D02*
X118089160Y-128826961D01*
X118089160Y-128826961D02*
X118089160Y-128446009D01*
X118089160Y-128446009D02*
X118136779Y-128350771D01*
X118136779Y-128350771D02*
X118232017Y-128303152D01*
X118232017Y-128303152D02*
X118422493Y-128303152D01*
X118422493Y-128303152D02*
X118517731Y-128350771D01*
X118517731Y-128350771D02*
X118565350Y-128446009D01*
X118565350Y-128446009D02*
X118565350Y-128541247D01*
X118565350Y-128541247D02*
X118089160Y-128636485D01*
X119422493Y-128969819D02*
X119422493Y-128446009D01*
X119422493Y-128446009D02*
X119374874Y-128350771D01*
X119374874Y-128350771D02*
X119279636Y-128303152D01*
X119279636Y-128303152D02*
X119089160Y-128303152D01*
X119089160Y-128303152D02*
X118993922Y-128350771D01*
X119422493Y-128922200D02*
X119327255Y-128969819D01*
X119327255Y-128969819D02*
X119089160Y-128969819D01*
X119089160Y-128969819D02*
X118993922Y-128922200D01*
X118993922Y-128922200D02*
X118946303Y-128826961D01*
X118946303Y-128826961D02*
X118946303Y-128731723D01*
X118946303Y-128731723D02*
X118993922Y-128636485D01*
X118993922Y-128636485D02*
X119089160Y-128588866D01*
X119089160Y-128588866D02*
X119327255Y-128588866D01*
X119327255Y-128588866D02*
X119422493Y-128541247D01*
X120327255Y-128969819D02*
X120327255Y-127969819D01*
X120327255Y-128922200D02*
X120232017Y-128969819D01*
X120232017Y-128969819D02*
X120041541Y-128969819D01*
X120041541Y-128969819D02*
X119946303Y-128922200D01*
X119946303Y-128922200D02*
X119898684Y-128874580D01*
X119898684Y-128874580D02*
X119851065Y-128779342D01*
X119851065Y-128779342D02*
X119851065Y-128493628D01*
X119851065Y-128493628D02*
X119898684Y-128398390D01*
X119898684Y-128398390D02*
X119946303Y-128350771D01*
X119946303Y-128350771D02*
X120041541Y-128303152D01*
X120041541Y-128303152D02*
X120232017Y-128303152D01*
X120232017Y-128303152D02*
X120327255Y-128350771D01*
X120565351Y-129065057D02*
X121327255Y-129065057D01*
X121565351Y-128446009D02*
X121898684Y-128446009D01*
X122041541Y-128969819D02*
X121565351Y-128969819D01*
X121565351Y-128969819D02*
X121565351Y-127969819D01*
X121565351Y-127969819D02*
X122041541Y-127969819D01*
X122470113Y-128303152D02*
X122470113Y-128969819D01*
X122470113Y-128398390D02*
X122517732Y-128350771D01*
X122517732Y-128350771D02*
X122612970Y-128303152D01*
X122612970Y-128303152D02*
X122755827Y-128303152D01*
X122755827Y-128303152D02*
X122851065Y-128350771D01*
X122851065Y-128350771D02*
X122898684Y-128446009D01*
X122898684Y-128446009D02*
X122898684Y-128969819D01*
X129360588Y-70569819D02*
X128789160Y-70569819D01*
X129074874Y-70569819D02*
X129074874Y-69569819D01*
X129074874Y-69569819D02*
X128979636Y-69712676D01*
X128979636Y-69712676D02*
X128884398Y-69807914D01*
X128884398Y-69807914D02*
X128789160Y-69855533D01*
X130312969Y-70569819D02*
X129741541Y-70569819D01*
X130027255Y-70569819D02*
X130027255Y-69569819D01*
X130027255Y-69569819D02*
X129932017Y-69712676D01*
X129932017Y-69712676D02*
X129836779Y-69807914D01*
X129836779Y-69807914D02*
X129741541Y-69855533D01*
X121060588Y-140717438D02*
X120965350Y-140669819D01*
X120965350Y-140669819D02*
X120822493Y-140669819D01*
X120822493Y-140669819D02*
X120679636Y-140717438D01*
X120679636Y-140717438D02*
X120584398Y-140812676D01*
X120584398Y-140812676D02*
X120536779Y-140907914D01*
X120536779Y-140907914D02*
X120489160Y-141098390D01*
X120489160Y-141098390D02*
X120489160Y-141241247D01*
X120489160Y-141241247D02*
X120536779Y-141431723D01*
X120536779Y-141431723D02*
X120584398Y-141526961D01*
X120584398Y-141526961D02*
X120679636Y-141622200D01*
X120679636Y-141622200D02*
X120822493Y-141669819D01*
X120822493Y-141669819D02*
X120917731Y-141669819D01*
X120917731Y-141669819D02*
X121060588Y-141622200D01*
X121060588Y-141622200D02*
X121108207Y-141574580D01*
X121108207Y-141574580D02*
X121108207Y-141241247D01*
X121108207Y-141241247D02*
X120917731Y-141241247D01*
X121536779Y-141669819D02*
X121536779Y-140669819D01*
X121536779Y-140669819D02*
X122108207Y-141669819D01*
X122108207Y-141669819D02*
X122108207Y-140669819D01*
X122584398Y-141669819D02*
X122584398Y-140669819D01*
X122584398Y-140669819D02*
X122822493Y-140669819D01*
X122822493Y-140669819D02*
X122965350Y-140717438D01*
X122965350Y-140717438D02*
X123060588Y-140812676D01*
X123060588Y-140812676D02*
X123108207Y-140907914D01*
X123108207Y-140907914D02*
X123155826Y-141098390D01*
X123155826Y-141098390D02*
X123155826Y-141241247D01*
X123155826Y-141241247D02*
X123108207Y-141431723D01*
X123108207Y-141431723D02*
X123060588Y-141526961D01*
X123060588Y-141526961D02*
X122965350Y-141622200D01*
X122965350Y-141622200D02*
X122822493Y-141669819D01*
X122822493Y-141669819D02*
X122584398Y-141669819D01*
X121160588Y-112869819D02*
X120589160Y-112869819D01*
X120874874Y-112869819D02*
X120874874Y-111869819D01*
X120874874Y-111869819D02*
X120779636Y-112012676D01*
X120779636Y-112012676D02*
X120684398Y-112107914D01*
X120684398Y-112107914D02*
X120589160Y-112155533D01*
X122017731Y-112203152D02*
X122017731Y-112869819D01*
X121779636Y-111822200D02*
X121541541Y-112536485D01*
X121541541Y-112536485D02*
X122160588Y-112536485D01*
X119412969Y-134069819D02*
X118936779Y-134069819D01*
X118936779Y-134069819D02*
X118936779Y-133069819D01*
X120079636Y-133546009D02*
X120222493Y-133593628D01*
X120222493Y-133593628D02*
X120270112Y-133641247D01*
X120270112Y-133641247D02*
X120317731Y-133736485D01*
X120317731Y-133736485D02*
X120317731Y-133879342D01*
X120317731Y-133879342D02*
X120270112Y-133974580D01*
X120270112Y-133974580D02*
X120222493Y-134022200D01*
X120222493Y-134022200D02*
X120127255Y-134069819D01*
X120127255Y-134069819D02*
X119746303Y-134069819D01*
X119746303Y-134069819D02*
X119746303Y-133069819D01*
X119746303Y-133069819D02*
X120079636Y-133069819D01*
X120079636Y-133069819D02*
X120174874Y-133117438D01*
X120174874Y-133117438D02*
X120222493Y-133165057D01*
X120222493Y-133165057D02*
X120270112Y-133260295D01*
X120270112Y-133260295D02*
X120270112Y-133355533D01*
X120270112Y-133355533D02*
X120222493Y-133450771D01*
X120222493Y-133450771D02*
X120174874Y-133498390D01*
X120174874Y-133498390D02*
X120079636Y-133546009D01*
X120079636Y-133546009D02*
X119746303Y-133546009D01*
X120508208Y-134165057D02*
X121270112Y-134165057D01*
X121508208Y-133546009D02*
X121841541Y-133546009D01*
X121984398Y-134069819D02*
X121508208Y-134069819D01*
X121508208Y-134069819D02*
X121508208Y-133069819D01*
X121508208Y-133069819D02*
X121984398Y-133069819D01*
X122412970Y-133403152D02*
X122412970Y-134069819D01*
X122412970Y-133498390D02*
X122460589Y-133450771D01*
X122460589Y-133450771D02*
X122555827Y-133403152D01*
X122555827Y-133403152D02*
X122698684Y-133403152D01*
X122698684Y-133403152D02*
X122793922Y-133450771D01*
X122793922Y-133450771D02*
X122841541Y-133546009D01*
X122841541Y-133546009D02*
X122841541Y-134069819D01*
X129260588Y-107769819D02*
X128689160Y-107769819D01*
X128974874Y-107769819D02*
X128974874Y-106769819D01*
X128974874Y-106769819D02*
X128879636Y-106912676D01*
X128879636Y-106912676D02*
X128784398Y-107007914D01*
X128784398Y-107007914D02*
X128689160Y-107055533D01*
X130212969Y-107769819D02*
X129641541Y-107769819D01*
X129927255Y-107769819D02*
X129927255Y-106769819D01*
X129927255Y-106769819D02*
X129832017Y-106912676D01*
X129832017Y-106912676D02*
X129736779Y-107007914D01*
X129736779Y-107007914D02*
X129641541Y-107055533D01*
X121765350Y-64369819D02*
X121574874Y-64369819D01*
X121574874Y-64369819D02*
X121479636Y-64417438D01*
X121479636Y-64417438D02*
X121432017Y-64465057D01*
X121432017Y-64465057D02*
X121336779Y-64607914D01*
X121336779Y-64607914D02*
X121289160Y-64798390D01*
X121289160Y-64798390D02*
X121289160Y-65179342D01*
X121289160Y-65179342D02*
X121336779Y-65274580D01*
X121336779Y-65274580D02*
X121384398Y-65322200D01*
X121384398Y-65322200D02*
X121479636Y-65369819D01*
X121479636Y-65369819D02*
X121670112Y-65369819D01*
X121670112Y-65369819D02*
X121765350Y-65322200D01*
X121765350Y-65322200D02*
X121812969Y-65274580D01*
X121812969Y-65274580D02*
X121860588Y-65179342D01*
X121860588Y-65179342D02*
X121860588Y-64941247D01*
X121860588Y-64941247D02*
X121812969Y-64846009D01*
X121812969Y-64846009D02*
X121765350Y-64798390D01*
X121765350Y-64798390D02*
X121670112Y-64750771D01*
X121670112Y-64750771D02*
X121479636Y-64750771D01*
X121479636Y-64750771D02*
X121384398Y-64798390D01*
X121384398Y-64798390D02*
X121336779Y-64846009D01*
X121336779Y-64846009D02*
X121289160Y-64941247D01*
X121160588Y-110369819D02*
X120589160Y-110369819D01*
X120874874Y-110369819D02*
X120874874Y-109369819D01*
X120874874Y-109369819D02*
X120779636Y-109512676D01*
X120779636Y-109512676D02*
X120684398Y-109607914D01*
X120684398Y-109607914D02*
X120589160Y-109655533D01*
X121541541Y-109465057D02*
X121589160Y-109417438D01*
X121589160Y-109417438D02*
X121684398Y-109369819D01*
X121684398Y-109369819D02*
X121922493Y-109369819D01*
X121922493Y-109369819D02*
X122017731Y-109417438D01*
X122017731Y-109417438D02*
X122065350Y-109465057D01*
X122065350Y-109465057D02*
X122112969Y-109560295D01*
X122112969Y-109560295D02*
X122112969Y-109655533D01*
X122112969Y-109655533D02*
X122065350Y-109798390D01*
X122065350Y-109798390D02*
X121493922Y-110369819D01*
X121493922Y-110369819D02*
X122112969Y-110369819D01*
X121479636Y-67398390D02*
X121384398Y-67350771D01*
X121384398Y-67350771D02*
X121336779Y-67303152D01*
X121336779Y-67303152D02*
X121289160Y-67207914D01*
X121289160Y-67207914D02*
X121289160Y-67160295D01*
X121289160Y-67160295D02*
X121336779Y-67065057D01*
X121336779Y-67065057D02*
X121384398Y-67017438D01*
X121384398Y-67017438D02*
X121479636Y-66969819D01*
X121479636Y-66969819D02*
X121670112Y-66969819D01*
X121670112Y-66969819D02*
X121765350Y-67017438D01*
X121765350Y-67017438D02*
X121812969Y-67065057D01*
X121812969Y-67065057D02*
X121860588Y-67160295D01*
X121860588Y-67160295D02*
X121860588Y-67207914D01*
X121860588Y-67207914D02*
X121812969Y-67303152D01*
X121812969Y-67303152D02*
X121765350Y-67350771D01*
X121765350Y-67350771D02*
X121670112Y-67398390D01*
X121670112Y-67398390D02*
X121479636Y-67398390D01*
X121479636Y-67398390D02*
X121384398Y-67446009D01*
X121384398Y-67446009D02*
X121336779Y-67493628D01*
X121336779Y-67493628D02*
X121289160Y-67588866D01*
X121289160Y-67588866D02*
X121289160Y-67779342D01*
X121289160Y-67779342D02*
X121336779Y-67874580D01*
X121336779Y-67874580D02*
X121384398Y-67922200D01*
X121384398Y-67922200D02*
X121479636Y-67969819D01*
X121479636Y-67969819D02*
X121670112Y-67969819D01*
X121670112Y-67969819D02*
X121765350Y-67922200D01*
X121765350Y-67922200D02*
X121812969Y-67874580D01*
X121812969Y-67874580D02*
X121860588Y-67779342D01*
X121860588Y-67779342D02*
X121860588Y-67588866D01*
X121860588Y-67588866D02*
X121812969Y-67493628D01*
X121812969Y-67493628D02*
X121765350Y-67446009D01*
X121765350Y-67446009D02*
X121670112Y-67398390D01*
X118736779Y-135569819D02*
X118736779Y-136379342D01*
X118736779Y-136379342D02*
X118784398Y-136474580D01*
X118784398Y-136474580D02*
X118832017Y-136522200D01*
X118832017Y-136522200D02*
X118927255Y-136569819D01*
X118927255Y-136569819D02*
X119117731Y-136569819D01*
X119117731Y-136569819D02*
X119212969Y-136522200D01*
X119212969Y-136522200D02*
X119260588Y-136474580D01*
X119260588Y-136474580D02*
X119308207Y-136379342D01*
X119308207Y-136379342D02*
X119308207Y-135569819D01*
X120117731Y-136046009D02*
X120260588Y-136093628D01*
X120260588Y-136093628D02*
X120308207Y-136141247D01*
X120308207Y-136141247D02*
X120355826Y-136236485D01*
X120355826Y-136236485D02*
X120355826Y-136379342D01*
X120355826Y-136379342D02*
X120308207Y-136474580D01*
X120308207Y-136474580D02*
X120260588Y-136522200D01*
X120260588Y-136522200D02*
X120165350Y-136569819D01*
X120165350Y-136569819D02*
X119784398Y-136569819D01*
X119784398Y-136569819D02*
X119784398Y-135569819D01*
X119784398Y-135569819D02*
X120117731Y-135569819D01*
X120117731Y-135569819D02*
X120212969Y-135617438D01*
X120212969Y-135617438D02*
X120260588Y-135665057D01*
X120260588Y-135665057D02*
X120308207Y-135760295D01*
X120308207Y-135760295D02*
X120308207Y-135855533D01*
X120308207Y-135855533D02*
X120260588Y-135950771D01*
X120260588Y-135950771D02*
X120212969Y-135998390D01*
X120212969Y-135998390D02*
X120117731Y-136046009D01*
X120117731Y-136046009D02*
X119784398Y-136046009D01*
X120546303Y-136665057D02*
X121308207Y-136665057D01*
X121546303Y-136046009D02*
X121879636Y-136046009D01*
X122022493Y-136569819D02*
X121546303Y-136569819D01*
X121546303Y-136569819D02*
X121546303Y-135569819D01*
X121546303Y-135569819D02*
X122022493Y-135569819D01*
X122451065Y-135903152D02*
X122451065Y-136569819D01*
X122451065Y-135998390D02*
X122498684Y-135950771D01*
X122498684Y-135950771D02*
X122593922Y-135903152D01*
X122593922Y-135903152D02*
X122736779Y-135903152D01*
X122736779Y-135903152D02*
X122832017Y-135950771D01*
X122832017Y-135950771D02*
X122879636Y-136046009D01*
X122879636Y-136046009D02*
X122879636Y-136569819D01*
X121289160Y-96765057D02*
X121336779Y-96717438D01*
X121336779Y-96717438D02*
X121432017Y-96669819D01*
X121432017Y-96669819D02*
X121670112Y-96669819D01*
X121670112Y-96669819D02*
X121765350Y-96717438D01*
X121765350Y-96717438D02*
X121812969Y-96765057D01*
X121812969Y-96765057D02*
X121860588Y-96860295D01*
X121860588Y-96860295D02*
X121860588Y-96955533D01*
X121860588Y-96955533D02*
X121812969Y-97098390D01*
X121812969Y-97098390D02*
X121241541Y-97669819D01*
X121241541Y-97669819D02*
X121860588Y-97669819D01*
X128984398Y-105169819D02*
X129174874Y-105169819D01*
X129174874Y-105169819D02*
X129270112Y-105122200D01*
X129270112Y-105122200D02*
X129317731Y-105074580D01*
X129317731Y-105074580D02*
X129412969Y-104931723D01*
X129412969Y-104931723D02*
X129460588Y-104741247D01*
X129460588Y-104741247D02*
X129460588Y-104360295D01*
X129460588Y-104360295D02*
X129412969Y-104265057D01*
X129412969Y-104265057D02*
X129365350Y-104217438D01*
X129365350Y-104217438D02*
X129270112Y-104169819D01*
X129270112Y-104169819D02*
X129079636Y-104169819D01*
X129079636Y-104169819D02*
X128984398Y-104217438D01*
X128984398Y-104217438D02*
X128936779Y-104265057D01*
X128936779Y-104265057D02*
X128889160Y-104360295D01*
X128889160Y-104360295D02*
X128889160Y-104598390D01*
X128889160Y-104598390D02*
X128936779Y-104693628D01*
X128936779Y-104693628D02*
X128984398Y-104741247D01*
X128984398Y-104741247D02*
X129079636Y-104788866D01*
X129079636Y-104788866D02*
X129270112Y-104788866D01*
X129270112Y-104788866D02*
X129365350Y-104741247D01*
X129365350Y-104741247D02*
X129412969Y-104693628D01*
X129412969Y-104693628D02*
X129460588Y-104598390D01*
X121160588Y-80669819D02*
X120589160Y-80669819D01*
X120874874Y-80669819D02*
X120874874Y-79669819D01*
X120874874Y-79669819D02*
X120779636Y-79812676D01*
X120779636Y-79812676D02*
X120684398Y-79907914D01*
X120684398Y-79907914D02*
X120589160Y-79955533D01*
X121732017Y-80098390D02*
X121636779Y-80050771D01*
X121636779Y-80050771D02*
X121589160Y-80003152D01*
X121589160Y-80003152D02*
X121541541Y-79907914D01*
X121541541Y-79907914D02*
X121541541Y-79860295D01*
X121541541Y-79860295D02*
X121589160Y-79765057D01*
X121589160Y-79765057D02*
X121636779Y-79717438D01*
X121636779Y-79717438D02*
X121732017Y-79669819D01*
X121732017Y-79669819D02*
X121922493Y-79669819D01*
X121922493Y-79669819D02*
X122017731Y-79717438D01*
X122017731Y-79717438D02*
X122065350Y-79765057D01*
X122065350Y-79765057D02*
X122112969Y-79860295D01*
X122112969Y-79860295D02*
X122112969Y-79907914D01*
X122112969Y-79907914D02*
X122065350Y-80003152D01*
X122065350Y-80003152D02*
X122017731Y-80050771D01*
X122017731Y-80050771D02*
X121922493Y-80098390D01*
X121922493Y-80098390D02*
X121732017Y-80098390D01*
X121732017Y-80098390D02*
X121636779Y-80146009D01*
X121636779Y-80146009D02*
X121589160Y-80193628D01*
X121589160Y-80193628D02*
X121541541Y-80288866D01*
X121541541Y-80288866D02*
X121541541Y-80479342D01*
X121541541Y-80479342D02*
X121589160Y-80574580D01*
X121589160Y-80574580D02*
X121636779Y-80622200D01*
X121636779Y-80622200D02*
X121732017Y-80669819D01*
X121732017Y-80669819D02*
X121922493Y-80669819D01*
X121922493Y-80669819D02*
X122017731Y-80622200D01*
X122017731Y-80622200D02*
X122065350Y-80574580D01*
X122065350Y-80574580D02*
X122112969Y-80479342D01*
X122112969Y-80479342D02*
X122112969Y-80288866D01*
X122112969Y-80288866D02*
X122065350Y-80193628D01*
X122065350Y-80193628D02*
X122017731Y-80146009D01*
X122017731Y-80146009D02*
X121922493Y-80098390D01*
X121527255Y-56869819D02*
X121622493Y-56869819D01*
X121622493Y-56869819D02*
X121717731Y-56917438D01*
X121717731Y-56917438D02*
X121765350Y-56965057D01*
X121765350Y-56965057D02*
X121812969Y-57060295D01*
X121812969Y-57060295D02*
X121860588Y-57250771D01*
X121860588Y-57250771D02*
X121860588Y-57488866D01*
X121860588Y-57488866D02*
X121812969Y-57679342D01*
X121812969Y-57679342D02*
X121765350Y-57774580D01*
X121765350Y-57774580D02*
X121717731Y-57822200D01*
X121717731Y-57822200D02*
X121622493Y-57869819D01*
X121622493Y-57869819D02*
X121527255Y-57869819D01*
X121527255Y-57869819D02*
X121432017Y-57822200D01*
X121432017Y-57822200D02*
X121384398Y-57774580D01*
X121384398Y-57774580D02*
X121336779Y-57679342D01*
X121336779Y-57679342D02*
X121289160Y-57488866D01*
X121289160Y-57488866D02*
X121289160Y-57250771D01*
X121289160Y-57250771D02*
X121336779Y-57060295D01*
X121336779Y-57060295D02*
X121384398Y-56965057D01*
X121384398Y-56965057D02*
X121432017Y-56917438D01*
X121432017Y-56917438D02*
X121527255Y-56869819D01*
X128941541Y-59269819D02*
X129560588Y-59269819D01*
X129560588Y-59269819D02*
X129227255Y-59650771D01*
X129227255Y-59650771D02*
X129370112Y-59650771D01*
X129370112Y-59650771D02*
X129465350Y-59698390D01*
X129465350Y-59698390D02*
X129512969Y-59746009D01*
X129512969Y-59746009D02*
X129560588Y-59841247D01*
X129560588Y-59841247D02*
X129560588Y-60079342D01*
X129560588Y-60079342D02*
X129512969Y-60174580D01*
X129512969Y-60174580D02*
X129465350Y-60222200D01*
X129465350Y-60222200D02*
X129370112Y-60269819D01*
X129370112Y-60269819D02*
X129084398Y-60269819D01*
X129084398Y-60269819D02*
X128989160Y-60222200D01*
X128989160Y-60222200D02*
X128941541Y-60174580D01*
X121160588Y-70569819D02*
X120589160Y-70569819D01*
X120874874Y-70569819D02*
X120874874Y-69569819D01*
X120874874Y-69569819D02*
X120779636Y-69712676D01*
X120779636Y-69712676D02*
X120684398Y-69807914D01*
X120684398Y-69807914D02*
X120589160Y-69855533D01*
X121779636Y-69569819D02*
X121874874Y-69569819D01*
X121874874Y-69569819D02*
X121970112Y-69617438D01*
X121970112Y-69617438D02*
X122017731Y-69665057D01*
X122017731Y-69665057D02*
X122065350Y-69760295D01*
X122065350Y-69760295D02*
X122112969Y-69950771D01*
X122112969Y-69950771D02*
X122112969Y-70188866D01*
X122112969Y-70188866D02*
X122065350Y-70379342D01*
X122065350Y-70379342D02*
X122017731Y-70474580D01*
X122017731Y-70474580D02*
X121970112Y-70522200D01*
X121970112Y-70522200D02*
X121874874Y-70569819D01*
X121874874Y-70569819D02*
X121779636Y-70569819D01*
X121779636Y-70569819D02*
X121684398Y-70522200D01*
X121684398Y-70522200D02*
X121636779Y-70474580D01*
X121636779Y-70474580D02*
X121589160Y-70379342D01*
X121589160Y-70379342D02*
X121541541Y-70188866D01*
X121541541Y-70188866D02*
X121541541Y-69950771D01*
X121541541Y-69950771D02*
X121589160Y-69760295D01*
X121589160Y-69760295D02*
X121636779Y-69665057D01*
X121636779Y-69665057D02*
X121684398Y-69617438D01*
X121684398Y-69617438D02*
X121779636Y-69569819D01*
X121160588Y-75569819D02*
X120589160Y-75569819D01*
X120874874Y-75569819D02*
X120874874Y-74569819D01*
X120874874Y-74569819D02*
X120779636Y-74712676D01*
X120779636Y-74712676D02*
X120684398Y-74807914D01*
X120684398Y-74807914D02*
X120589160Y-74855533D01*
X122017731Y-74903152D02*
X122017731Y-75569819D01*
X121779636Y-74522200D02*
X121541541Y-75236485D01*
X121541541Y-75236485D02*
X122160588Y-75236485D01*
X129460588Y-95069819D02*
X128889160Y-95069819D01*
X129174874Y-95069819D02*
X129174874Y-94069819D01*
X129174874Y-94069819D02*
X129079636Y-94212676D01*
X129079636Y-94212676D02*
X128984398Y-94307914D01*
X128984398Y-94307914D02*
X128889160Y-94355533D01*
X121765350Y-101669819D02*
X121574874Y-101669819D01*
X121574874Y-101669819D02*
X121479636Y-101717438D01*
X121479636Y-101717438D02*
X121432017Y-101765057D01*
X121432017Y-101765057D02*
X121336779Y-101907914D01*
X121336779Y-101907914D02*
X121289160Y-102098390D01*
X121289160Y-102098390D02*
X121289160Y-102479342D01*
X121289160Y-102479342D02*
X121336779Y-102574580D01*
X121336779Y-102574580D02*
X121384398Y-102622200D01*
X121384398Y-102622200D02*
X121479636Y-102669819D01*
X121479636Y-102669819D02*
X121670112Y-102669819D01*
X121670112Y-102669819D02*
X121765350Y-102622200D01*
X121765350Y-102622200D02*
X121812969Y-102574580D01*
X121812969Y-102574580D02*
X121860588Y-102479342D01*
X121860588Y-102479342D02*
X121860588Y-102241247D01*
X121860588Y-102241247D02*
X121812969Y-102146009D01*
X121812969Y-102146009D02*
X121765350Y-102098390D01*
X121765350Y-102098390D02*
X121670112Y-102050771D01*
X121670112Y-102050771D02*
X121479636Y-102050771D01*
X121479636Y-102050771D02*
X121384398Y-102098390D01*
X121384398Y-102098390D02*
X121336779Y-102146009D01*
X121336779Y-102146009D02*
X121289160Y-102241247D01*
X121289160Y-59465057D02*
X121336779Y-59417438D01*
X121336779Y-59417438D02*
X121432017Y-59369819D01*
X121432017Y-59369819D02*
X121670112Y-59369819D01*
X121670112Y-59369819D02*
X121765350Y-59417438D01*
X121765350Y-59417438D02*
X121812969Y-59465057D01*
X121812969Y-59465057D02*
X121860588Y-59560295D01*
X121860588Y-59560295D02*
X121860588Y-59655533D01*
X121860588Y-59655533D02*
X121812969Y-59798390D01*
X121812969Y-59798390D02*
X121241541Y-60369819D01*
X121241541Y-60369819D02*
X121860588Y-60369819D01*
X128941541Y-64369819D02*
X129608207Y-64369819D01*
X129608207Y-64369819D02*
X129179636Y-65369819D01*
X129412969Y-99069819D02*
X128936779Y-99069819D01*
X128936779Y-99069819D02*
X128889160Y-99546009D01*
X128889160Y-99546009D02*
X128936779Y-99498390D01*
X128936779Y-99498390D02*
X129032017Y-99450771D01*
X129032017Y-99450771D02*
X129270112Y-99450771D01*
X129270112Y-99450771D02*
X129365350Y-99498390D01*
X129365350Y-99498390D02*
X129412969Y-99546009D01*
X129412969Y-99546009D02*
X129460588Y-99641247D01*
X129460588Y-99641247D02*
X129460588Y-99879342D01*
X129460588Y-99879342D02*
X129412969Y-99974580D01*
X129412969Y-99974580D02*
X129365350Y-100022200D01*
X129365350Y-100022200D02*
X129270112Y-100069819D01*
X129270112Y-100069819D02*
X129032017Y-100069819D01*
X129032017Y-100069819D02*
X128936779Y-100022200D01*
X128936779Y-100022200D02*
X128889160Y-99974580D01*
X121479636Y-104698390D02*
X121384398Y-104650771D01*
X121384398Y-104650771D02*
X121336779Y-104603152D01*
X121336779Y-104603152D02*
X121289160Y-104507914D01*
X121289160Y-104507914D02*
X121289160Y-104460295D01*
X121289160Y-104460295D02*
X121336779Y-104365057D01*
X121336779Y-104365057D02*
X121384398Y-104317438D01*
X121384398Y-104317438D02*
X121479636Y-104269819D01*
X121479636Y-104269819D02*
X121670112Y-104269819D01*
X121670112Y-104269819D02*
X121765350Y-104317438D01*
X121765350Y-104317438D02*
X121812969Y-104365057D01*
X121812969Y-104365057D02*
X121860588Y-104460295D01*
X121860588Y-104460295D02*
X121860588Y-104507914D01*
X121860588Y-104507914D02*
X121812969Y-104603152D01*
X121812969Y-104603152D02*
X121765350Y-104650771D01*
X121765350Y-104650771D02*
X121670112Y-104698390D01*
X121670112Y-104698390D02*
X121479636Y-104698390D01*
X121479636Y-104698390D02*
X121384398Y-104746009D01*
X121384398Y-104746009D02*
X121336779Y-104793628D01*
X121336779Y-104793628D02*
X121289160Y-104888866D01*
X121289160Y-104888866D02*
X121289160Y-105079342D01*
X121289160Y-105079342D02*
X121336779Y-105174580D01*
X121336779Y-105174580D02*
X121384398Y-105222200D01*
X121384398Y-105222200D02*
X121479636Y-105269819D01*
X121479636Y-105269819D02*
X121670112Y-105269819D01*
X121670112Y-105269819D02*
X121765350Y-105222200D01*
X121765350Y-105222200D02*
X121812969Y-105174580D01*
X121812969Y-105174580D02*
X121860588Y-105079342D01*
X121860588Y-105079342D02*
X121860588Y-104888866D01*
X121860588Y-104888866D02*
X121812969Y-104793628D01*
X121812969Y-104793628D02*
X121765350Y-104746009D01*
X121765350Y-104746009D02*
X121670112Y-104698390D01*
X117041541Y-130569819D02*
X117279636Y-131569819D01*
X117279636Y-131569819D02*
X117470112Y-130855533D01*
X117470112Y-130855533D02*
X117660588Y-131569819D01*
X117660588Y-131569819D02*
X117898684Y-130569819D01*
X118279636Y-131569819D02*
X118279636Y-130903152D01*
X118279636Y-131093628D02*
X118327255Y-130998390D01*
X118327255Y-130998390D02*
X118374874Y-130950771D01*
X118374874Y-130950771D02*
X118470112Y-130903152D01*
X118470112Y-130903152D02*
X118565350Y-130903152D01*
X118898684Y-131569819D02*
X118898684Y-130903152D01*
X118898684Y-130569819D02*
X118851065Y-130617438D01*
X118851065Y-130617438D02*
X118898684Y-130665057D01*
X118898684Y-130665057D02*
X118946303Y-130617438D01*
X118946303Y-130617438D02*
X118898684Y-130569819D01*
X118898684Y-130569819D02*
X118898684Y-130665057D01*
X119232017Y-130903152D02*
X119612969Y-130903152D01*
X119374874Y-130569819D02*
X119374874Y-131426961D01*
X119374874Y-131426961D02*
X119422493Y-131522200D01*
X119422493Y-131522200D02*
X119517731Y-131569819D01*
X119517731Y-131569819D02*
X119612969Y-131569819D01*
X120327255Y-131522200D02*
X120232017Y-131569819D01*
X120232017Y-131569819D02*
X120041541Y-131569819D01*
X120041541Y-131569819D02*
X119946303Y-131522200D01*
X119946303Y-131522200D02*
X119898684Y-131426961D01*
X119898684Y-131426961D02*
X119898684Y-131046009D01*
X119898684Y-131046009D02*
X119946303Y-130950771D01*
X119946303Y-130950771D02*
X120041541Y-130903152D01*
X120041541Y-130903152D02*
X120232017Y-130903152D01*
X120232017Y-130903152D02*
X120327255Y-130950771D01*
X120327255Y-130950771D02*
X120374874Y-131046009D01*
X120374874Y-131046009D02*
X120374874Y-131141247D01*
X120374874Y-131141247D02*
X119898684Y-131236485D01*
X120565351Y-131665057D02*
X121327255Y-131665057D01*
X121565351Y-131046009D02*
X121898684Y-131046009D01*
X122041541Y-131569819D02*
X121565351Y-131569819D01*
X121565351Y-131569819D02*
X121565351Y-130569819D01*
X121565351Y-130569819D02*
X122041541Y-130569819D01*
X122470113Y-130903152D02*
X122470113Y-131569819D01*
X122470113Y-130998390D02*
X122517732Y-130950771D01*
X122517732Y-130950771D02*
X122612970Y-130903152D01*
X122612970Y-130903152D02*
X122755827Y-130903152D01*
X122755827Y-130903152D02*
X122851065Y-130950771D01*
X122851065Y-130950771D02*
X122898684Y-131046009D01*
X122898684Y-131046009D02*
X122898684Y-131569819D01*
X129512969Y-61869819D02*
X129036779Y-61869819D01*
X129036779Y-61869819D02*
X128989160Y-62346009D01*
X128989160Y-62346009D02*
X129036779Y-62298390D01*
X129036779Y-62298390D02*
X129132017Y-62250771D01*
X129132017Y-62250771D02*
X129370112Y-62250771D01*
X129370112Y-62250771D02*
X129465350Y-62298390D01*
X129465350Y-62298390D02*
X129512969Y-62346009D01*
X129512969Y-62346009D02*
X129560588Y-62441247D01*
X129560588Y-62441247D02*
X129560588Y-62679342D01*
X129560588Y-62679342D02*
X129512969Y-62774580D01*
X129512969Y-62774580D02*
X129465350Y-62822200D01*
X129465350Y-62822200D02*
X129370112Y-62869819D01*
X129370112Y-62869819D02*
X129132017Y-62869819D01*
X129132017Y-62869819D02*
X129036779Y-62822200D01*
X129036779Y-62822200D02*
X128989160Y-62774580D01*
X122008207Y-126374580D02*
X121960588Y-126422200D01*
X121960588Y-126422200D02*
X121817731Y-126469819D01*
X121817731Y-126469819D02*
X121722493Y-126469819D01*
X121722493Y-126469819D02*
X121579636Y-126422200D01*
X121579636Y-126422200D02*
X121484398Y-126326961D01*
X121484398Y-126326961D02*
X121436779Y-126231723D01*
X121436779Y-126231723D02*
X121389160Y-126041247D01*
X121389160Y-126041247D02*
X121389160Y-125898390D01*
X121389160Y-125898390D02*
X121436779Y-125707914D01*
X121436779Y-125707914D02*
X121484398Y-125612676D01*
X121484398Y-125612676D02*
X121579636Y-125517438D01*
X121579636Y-125517438D02*
X121722493Y-125469819D01*
X121722493Y-125469819D02*
X121817731Y-125469819D01*
X121817731Y-125469819D02*
X121960588Y-125517438D01*
X121960588Y-125517438D02*
X122008207Y-125565057D01*
X122436779Y-125946009D02*
X122770112Y-125946009D01*
X122912969Y-126469819D02*
X122436779Y-126469819D01*
X122436779Y-126469819D02*
X122436779Y-125469819D01*
X122436779Y-125469819D02*
X122912969Y-125469819D01*
X129360588Y-80669819D02*
X128789160Y-80669819D01*
X129074874Y-80669819D02*
X129074874Y-79669819D01*
X129074874Y-79669819D02*
X128979636Y-79812676D01*
X128979636Y-79812676D02*
X128884398Y-79907914D01*
X128884398Y-79907914D02*
X128789160Y-79955533D01*
X129836779Y-80669819D02*
X130027255Y-80669819D01*
X130027255Y-80669819D02*
X130122493Y-80622200D01*
X130122493Y-80622200D02*
X130170112Y-80574580D01*
X130170112Y-80574580D02*
X130265350Y-80431723D01*
X130265350Y-80431723D02*
X130312969Y-80241247D01*
X130312969Y-80241247D02*
X130312969Y-79860295D01*
X130312969Y-79860295D02*
X130265350Y-79765057D01*
X130265350Y-79765057D02*
X130217731Y-79717438D01*
X130217731Y-79717438D02*
X130122493Y-79669819D01*
X130122493Y-79669819D02*
X129932017Y-79669819D01*
X129932017Y-79669819D02*
X129836779Y-79717438D01*
X129836779Y-79717438D02*
X129789160Y-79765057D01*
X129789160Y-79765057D02*
X129741541Y-79860295D01*
X129741541Y-79860295D02*
X129741541Y-80098390D01*
X129741541Y-80098390D02*
X129789160Y-80193628D01*
X129789160Y-80193628D02*
X129836779Y-80241247D01*
X129836779Y-80241247D02*
X129932017Y-80288866D01*
X129932017Y-80288866D02*
X130122493Y-80288866D01*
X130122493Y-80288866D02*
X130217731Y-80241247D01*
X130217731Y-80241247D02*
X130265350Y-80193628D01*
X130265350Y-80193628D02*
X130312969Y-80098390D01*
X122846190Y-55139104D02*
X123322380Y-55139104D01*
X122750952Y-55424819D02*
X123084285Y-54424819D01*
X123084285Y-54424819D02*
X123417618Y-55424819D01*
X124179523Y-55424819D02*
X124179523Y-54424819D01*
X124179523Y-55377200D02*
X124084285Y-55424819D01*
X124084285Y-55424819D02*
X123893809Y-55424819D01*
X123893809Y-55424819D02*
X123798571Y-55377200D01*
X123798571Y-55377200D02*
X123750952Y-55329580D01*
X123750952Y-55329580D02*
X123703333Y-55234342D01*
X123703333Y-55234342D02*
X123703333Y-54948628D01*
X123703333Y-54948628D02*
X123750952Y-54853390D01*
X123750952Y-54853390D02*
X123798571Y-54805771D01*
X123798571Y-54805771D02*
X123893809Y-54758152D01*
X123893809Y-54758152D02*
X124084285Y-54758152D01*
X124084285Y-54758152D02*
X124179523Y-54805771D01*
X125084285Y-55424819D02*
X125084285Y-54424819D01*
X125084285Y-55377200D02*
X124989047Y-55424819D01*
X124989047Y-55424819D02*
X124798571Y-55424819D01*
X124798571Y-55424819D02*
X124703333Y-55377200D01*
X124703333Y-55377200D02*
X124655714Y-55329580D01*
X124655714Y-55329580D02*
X124608095Y-55234342D01*
X124608095Y-55234342D02*
X124608095Y-54948628D01*
X124608095Y-54948628D02*
X124655714Y-54853390D01*
X124655714Y-54853390D02*
X124703333Y-54805771D01*
X124703333Y-54805771D02*
X124798571Y-54758152D01*
X124798571Y-54758152D02*
X124989047Y-54758152D01*
X124989047Y-54758152D02*
X125084285Y-54805771D01*
X125560476Y-55424819D02*
X125560476Y-54758152D01*
X125560476Y-54948628D02*
X125608095Y-54853390D01*
X125608095Y-54853390D02*
X125655714Y-54805771D01*
X125655714Y-54805771D02*
X125750952Y-54758152D01*
X125750952Y-54758152D02*
X125846190Y-54758152D01*
X125941429Y-55520057D02*
X126703333Y-55520057D01*
X126941429Y-55424819D02*
X126941429Y-54424819D01*
X127417619Y-54758152D02*
X127417619Y-55424819D01*
X127417619Y-54853390D02*
X127465238Y-54805771D01*
X127465238Y-54805771D02*
X127560476Y-54758152D01*
X127560476Y-54758152D02*
X127703333Y-54758152D01*
X127703333Y-54758152D02*
X127798571Y-54805771D01*
X127798571Y-54805771D02*
X127846190Y-54901009D01*
X127846190Y-54901009D02*
X127846190Y-55424819D01*
X122842190Y-92524819D02*
X122842190Y-91524819D01*
X122842190Y-91524819D02*
X123080285Y-91524819D01*
X123080285Y-91524819D02*
X123223142Y-91572438D01*
X123223142Y-91572438D02*
X123318380Y-91667676D01*
X123318380Y-91667676D02*
X123365999Y-91762914D01*
X123365999Y-91762914D02*
X123413618Y-91953390D01*
X123413618Y-91953390D02*
X123413618Y-92096247D01*
X123413618Y-92096247D02*
X123365999Y-92286723D01*
X123365999Y-92286723D02*
X123318380Y-92381961D01*
X123318380Y-92381961D02*
X123223142Y-92477200D01*
X123223142Y-92477200D02*
X123080285Y-92524819D01*
X123080285Y-92524819D02*
X122842190Y-92524819D01*
X124270761Y-92524819D02*
X124270761Y-92001009D01*
X124270761Y-92001009D02*
X124223142Y-91905771D01*
X124223142Y-91905771D02*
X124127904Y-91858152D01*
X124127904Y-91858152D02*
X123937428Y-91858152D01*
X123937428Y-91858152D02*
X123842190Y-91905771D01*
X124270761Y-92477200D02*
X124175523Y-92524819D01*
X124175523Y-92524819D02*
X123937428Y-92524819D01*
X123937428Y-92524819D02*
X123842190Y-92477200D01*
X123842190Y-92477200D02*
X123794571Y-92381961D01*
X123794571Y-92381961D02*
X123794571Y-92286723D01*
X123794571Y-92286723D02*
X123842190Y-92191485D01*
X123842190Y-92191485D02*
X123937428Y-92143866D01*
X123937428Y-92143866D02*
X124175523Y-92143866D01*
X124175523Y-92143866D02*
X124270761Y-92096247D01*
X124604095Y-91858152D02*
X124985047Y-91858152D01*
X124746952Y-91524819D02*
X124746952Y-92381961D01*
X124746952Y-92381961D02*
X124794571Y-92477200D01*
X124794571Y-92477200D02*
X124889809Y-92524819D01*
X124889809Y-92524819D02*
X124985047Y-92524819D01*
X125746952Y-92524819D02*
X125746952Y-92001009D01*
X125746952Y-92001009D02*
X125699333Y-91905771D01*
X125699333Y-91905771D02*
X125604095Y-91858152D01*
X125604095Y-91858152D02*
X125413619Y-91858152D01*
X125413619Y-91858152D02*
X125318381Y-91905771D01*
X125746952Y-92477200D02*
X125651714Y-92524819D01*
X125651714Y-92524819D02*
X125413619Y-92524819D01*
X125413619Y-92524819D02*
X125318381Y-92477200D01*
X125318381Y-92477200D02*
X125270762Y-92381961D01*
X125270762Y-92381961D02*
X125270762Y-92286723D01*
X125270762Y-92286723D02*
X125318381Y-92191485D01*
X125318381Y-92191485D02*
X125413619Y-92143866D01*
X125413619Y-92143866D02*
X125651714Y-92143866D01*
X125651714Y-92143866D02*
X125746952Y-92096247D01*
X125985048Y-92620057D02*
X126746952Y-92620057D01*
X126985048Y-92524819D02*
X126985048Y-91524819D01*
X127461238Y-91858152D02*
X127461238Y-92524819D01*
X127461238Y-91953390D02*
X127508857Y-91905771D01*
X127508857Y-91905771D02*
X127604095Y-91858152D01*
X127604095Y-91858152D02*
X127746952Y-91858152D01*
X127746952Y-91858152D02*
X127842190Y-91905771D01*
X127842190Y-91905771D02*
X127889809Y-92001009D01*
X127889809Y-92001009D02*
X127889809Y-92524819D01*
D11*
X170616667Y-63657419D02*
X170616667Y-62657419D01*
X170616667Y-62657419D02*
X170950000Y-63371704D01*
X170950000Y-63371704D02*
X171283333Y-62657419D01*
X171283333Y-62657419D02*
X171283333Y-63657419D01*
X172330952Y-63657419D02*
X171997619Y-63181228D01*
X171759524Y-63657419D02*
X171759524Y-62657419D01*
X171759524Y-62657419D02*
X172140476Y-62657419D01*
X172140476Y-62657419D02*
X172235714Y-62705038D01*
X172235714Y-62705038D02*
X172283333Y-62752657D01*
X172283333Y-62752657D02*
X172330952Y-62847895D01*
X172330952Y-62847895D02*
X172330952Y-62990752D01*
X172330952Y-62990752D02*
X172283333Y-63085990D01*
X172283333Y-63085990D02*
X172235714Y-63133609D01*
X172235714Y-63133609D02*
X172140476Y-63181228D01*
X172140476Y-63181228D02*
X171759524Y-63181228D01*
X172711905Y-63371704D02*
X173188095Y-63371704D01*
X172616667Y-63657419D02*
X172950000Y-62657419D01*
X172950000Y-62657419D02*
X173283333Y-63657419D01*
X173616667Y-63657419D02*
X173616667Y-62657419D01*
X173616667Y-62657419D02*
X173950000Y-63371704D01*
X173950000Y-63371704D02*
X174283333Y-62657419D01*
X174283333Y-62657419D02*
X174283333Y-63657419D01*
D10*
X123880951Y-123979580D02*
X123833332Y-124027200D01*
X123833332Y-124027200D02*
X123690475Y-124074819D01*
X123690475Y-124074819D02*
X123595237Y-124074819D01*
X123595237Y-124074819D02*
X123452380Y-124027200D01*
X123452380Y-124027200D02*
X123357142Y-123931961D01*
X123357142Y-123931961D02*
X123309523Y-123836723D01*
X123309523Y-123836723D02*
X123261904Y-123646247D01*
X123261904Y-123646247D02*
X123261904Y-123503390D01*
X123261904Y-123503390D02*
X123309523Y-123312914D01*
X123309523Y-123312914D02*
X123357142Y-123217676D01*
X123357142Y-123217676D02*
X123452380Y-123122438D01*
X123452380Y-123122438D02*
X123595237Y-123074819D01*
X123595237Y-123074819D02*
X123690475Y-123074819D01*
X123690475Y-123074819D02*
X123833332Y-123122438D01*
X123833332Y-123122438D02*
X123880951Y-123170057D01*
X124166666Y-123408152D02*
X124547618Y-123408152D01*
X124309523Y-123074819D02*
X124309523Y-123931961D01*
X124309523Y-123931961D02*
X124357142Y-124027200D01*
X124357142Y-124027200D02*
X124452380Y-124074819D01*
X124452380Y-124074819D02*
X124547618Y-124074819D01*
X124880952Y-124074819D02*
X124880952Y-123408152D01*
X124880952Y-123598628D02*
X124928571Y-123503390D01*
X124928571Y-123503390D02*
X124976190Y-123455771D01*
X124976190Y-123455771D02*
X125071428Y-123408152D01*
X125071428Y-123408152D02*
X125166666Y-123408152D01*
X125642857Y-124074819D02*
X125547619Y-124027200D01*
X125547619Y-124027200D02*
X125500000Y-123931961D01*
X125500000Y-123931961D02*
X125500000Y-123074819D01*
X125785715Y-124170057D02*
X126547619Y-124170057D01*
X126785715Y-124074819D02*
X126785715Y-123074819D01*
X127261905Y-123408152D02*
X127261905Y-124074819D01*
X127261905Y-123503390D02*
X127309524Y-123455771D01*
X127309524Y-123455771D02*
X127404762Y-123408152D01*
X127404762Y-123408152D02*
X127547619Y-123408152D01*
X127547619Y-123408152D02*
X127642857Y-123455771D01*
X127642857Y-123455771D02*
X127690476Y-123551009D01*
X127690476Y-123551009D02*
X127690476Y-124074819D01*
D12*
%TO.C,Addr_In*%
X122770000Y-55970000D02*
X124100000Y-55970000D01*
X122770000Y-57300000D02*
X122770000Y-55970000D01*
X122770000Y-58570000D02*
X122770000Y-81490000D01*
X122770000Y-58570000D02*
X125370000Y-58570000D01*
X122770000Y-81490000D02*
X127970000Y-81490000D01*
X125370000Y-55970000D02*
X127970000Y-55970000D01*
X125370000Y-58570000D02*
X125370000Y-55970000D01*
X127970000Y-55970000D02*
X127970000Y-81490000D01*
%TO.C,Data_In*%
X122766000Y-93070000D02*
X124096000Y-93070000D01*
X122766000Y-94400000D02*
X122766000Y-93070000D01*
X122766000Y-95670000D02*
X122766000Y-113510000D01*
X122766000Y-95670000D02*
X125366000Y-95670000D01*
X122766000Y-113510000D02*
X127966000Y-113510000D01*
X125366000Y-93070000D02*
X127966000Y-93070000D01*
X125366000Y-95670000D02*
X125366000Y-93070000D01*
X127966000Y-93070000D02*
X127966000Y-113510000D01*
%TO.C,MRAM*%
X163956200Y-68782600D02*
X163956200Y-134882600D01*
X163956200Y-68782600D02*
X166616200Y-68782600D01*
X163956200Y-134882600D02*
X166616200Y-134882600D01*
X165286200Y-66182600D02*
X166616200Y-66182600D01*
X166616200Y-66182600D02*
X166616200Y-67512600D01*
X166616200Y-68782600D02*
X166616200Y-134882600D01*
X179195720Y-68783560D02*
X179195720Y-134883560D01*
X179195720Y-68783560D02*
X181855720Y-68783560D01*
X179195720Y-134883560D02*
X181855720Y-134883560D01*
X180525720Y-66183560D02*
X181855720Y-66183560D01*
X181855720Y-66183560D02*
X181855720Y-67513560D01*
X181855720Y-68783560D02*
X181855720Y-134883560D01*
%TO.C,Ctrl_In*%
X124170000Y-124620000D02*
X125500000Y-124620000D01*
X124170000Y-125950000D02*
X124170000Y-124620000D01*
X124170000Y-127220000D02*
X124170000Y-145060000D01*
X124170000Y-127220000D02*
X126830000Y-127220000D01*
X124170000Y-145060000D02*
X126830000Y-145060000D01*
X126830000Y-127220000D02*
X126830000Y-145060000D01*
%TD*%
M02*
