M48
; DRILL file {KiCad 8.0.4} date 2024-09-23T22:15:29+0800
; FORMAT={3:3/ absolute / metric / suppress leading zeros}
; #@! TF.CreationDate,2024-09-23T22:15:29+08:00
; #@! TF.GenerationSoftware,Kicad,Pcbnew,8.0.4
; #@! TF.FileFunction,Plated,1,2,PTH
FMAT,2
METRIC,TZ
; #@! TA.AperFunction,Plated,PTH,ViaDrill
T1C0.300
; #@! TA.AperFunction,Plated,PTH,ComponentDrill
T2C1.000
%
G90
G05
T1
X120200Y-120200
X135300Y-68850
X135300Y-70000
X135300Y-71400
X135300Y-72500
X135300Y-73700
X135300Y-75000
X135300Y-76400
X135300Y-77620
X135300Y-79010
X135300Y-80160
X135300Y-85300
X135300Y-87833
X135300Y-90373
X135300Y-92900
X135300Y-96940
X135500Y-110700
X135553Y-108153
X135600Y-103073
X135600Y-105613
X171500Y-143100
X173800Y-143100
X173900Y-98000
X173900Y-104800
X175400Y-60400
X175985Y-61000
X176600Y-61600
X177200Y-62400
X177800Y-63100
X187000Y-89700
X187600Y-87400
T2
X124096Y-94400
X124096Y-96940
X124096Y-99480
X124096Y-102020
X124096Y-104560
X124096Y-107100
X124096Y-109640
X124096Y-112180
X124100Y-57300
X124100Y-59840
X124100Y-62380
X124100Y-64920
X124100Y-67460
X124100Y-70000
X124100Y-72540
X124100Y-75080
X124100Y-77620
X124100Y-80160
X125500Y-125950
X125500Y-128490
X125500Y-131030
X125500Y-133570
X125500Y-136110
X125500Y-138650
X125500Y-141190
X125500Y-143730
X126636Y-94400
X126636Y-96940
X126636Y-99480
X126636Y-102020
X126636Y-104560
X126636Y-107100
X126636Y-109640
X126636Y-112180
X126640Y-57300
X126640Y-59840
X126640Y-62380
X126640Y-64920
X126640Y-67460
X126640Y-70000
X126640Y-72540
X126640Y-75080
X126640Y-77620
X126640Y-80160
X165286Y-67513
X165286Y-70053
X165286Y-72593
X165286Y-75133
X165286Y-77673
X165286Y-80213
X165286Y-82753
X165286Y-85293
X165286Y-87833
X165286Y-90373
X165286Y-92913
X165286Y-95453
X165286Y-97993
X165286Y-100533
X165286Y-103073
X165286Y-105613
X165286Y-108153
X165286Y-110693
X165286Y-113233
X165286Y-115773
X165286Y-118313
X165286Y-120853
X165286Y-123393
X165286Y-125933
X165286Y-128473
X165286Y-131013
X165286Y-133553
X180526Y-67514
X180526Y-70054
X180526Y-72594
X180526Y-75134
X180526Y-77674
X180526Y-80214
X180526Y-82754
X180526Y-85294
X180526Y-87834
X180526Y-90374
X180526Y-92914
X180526Y-95454
X180526Y-97994
X180526Y-100534
X180526Y-103074
X180526Y-105614
X180526Y-108154
X180526Y-110694
X180526Y-113234
X180526Y-115774
X180526Y-118314
X180526Y-120854
X180526Y-123394
X180526Y-125934
X180526Y-128474
X180526Y-131014
X180526Y-133554
M30
