%TF.GenerationSoftware,KiCad,Pcbnew,8.0.4*%
%TF.CreationDate,2024-09-23T22:15:34+08:00*%
%TF.ProjectId,Passive PCB,50617373-6976-4652-9050-43422e6b6963,rev?*%
%TF.SameCoordinates,Original*%
%TF.FileFunction,Soldermask,Bot*%
%TF.FilePolarity,Negative*%
%FSLAX46Y46*%
G04 Gerber Fmt 4.6, Leading zero omitted, Abs format (unit mm)*
G04 Created by KiCad (PCBNEW 8.0.4) date 2024-09-23 22:15:34*
%MOMM*%
%LPD*%
G01*
G04 APERTURE LIST*
%ADD10R,1.700000X1.700000*%
%ADD11O,1.700000X1.700000*%
%ADD12C,4.300000*%
G04 APERTURE END LIST*
D10*
%TO.C,Addr_In*%
X124100000Y-57300000D03*
D11*
X126640000Y-57300000D03*
X124100000Y-59840000D03*
X126640000Y-59840000D03*
X124100000Y-62380000D03*
X126640000Y-62380000D03*
X124100000Y-64920000D03*
X126640000Y-64920000D03*
X124100000Y-67460000D03*
X126640000Y-67460000D03*
X124100000Y-70000000D03*
X126640000Y-70000000D03*
X124100000Y-72540000D03*
X126640000Y-72540000D03*
X124100000Y-75080000D03*
X126640000Y-75080000D03*
X124100000Y-77620000D03*
X126640000Y-77620000D03*
X124100000Y-80160000D03*
X126640000Y-80160000D03*
%TD*%
D10*
%TO.C,Data_In*%
X124096000Y-94400000D03*
D11*
X126636000Y-94400000D03*
X124096000Y-96940000D03*
X126636000Y-96940000D03*
X124096000Y-99480000D03*
X126636000Y-99480000D03*
X124096000Y-102020000D03*
X126636000Y-102020000D03*
X124096000Y-104560000D03*
X126636000Y-104560000D03*
X124096000Y-107100000D03*
X126636000Y-107100000D03*
X124096000Y-109640000D03*
X126636000Y-109640000D03*
X124096000Y-112180000D03*
X126636000Y-112180000D03*
%TD*%
D10*
%TO.C,MRAM*%
X165286200Y-67512600D03*
D11*
X165286200Y-70052600D03*
X165286200Y-72592600D03*
X165286200Y-75132600D03*
X165286200Y-77672600D03*
X165286200Y-80212600D03*
X165286200Y-82752600D03*
X165286200Y-85292600D03*
X165286200Y-87832600D03*
X165286200Y-90372600D03*
X165286200Y-92912600D03*
X165286200Y-95452600D03*
X165286200Y-97992600D03*
X165286200Y-100532600D03*
X165286200Y-103072600D03*
X165286200Y-105612600D03*
X165286200Y-108152600D03*
X165286200Y-110692600D03*
X165286200Y-113232600D03*
X165286200Y-115772600D03*
X165286200Y-118312600D03*
X165286200Y-120852600D03*
X165286200Y-123392600D03*
X165286200Y-125932600D03*
X165286200Y-128472600D03*
X165286200Y-131012600D03*
X165286200Y-133552600D03*
X180525720Y-133553560D03*
X180525720Y-131013560D03*
X180525720Y-128473560D03*
X180525720Y-125933560D03*
X180525720Y-123393560D03*
X180525720Y-120853560D03*
X180525720Y-118313560D03*
X180525720Y-115773560D03*
X180525720Y-113233560D03*
X180525720Y-110693560D03*
X180525720Y-108153560D03*
X180525720Y-105613560D03*
X180525720Y-103073560D03*
X180525720Y-100533560D03*
X180525720Y-97993560D03*
X180525720Y-95453560D03*
X180525720Y-92913560D03*
X180525720Y-90373560D03*
X180525720Y-87833560D03*
X180525720Y-85293560D03*
X180525720Y-82753560D03*
X180525720Y-80213560D03*
X180525720Y-77673560D03*
X180525720Y-75133560D03*
X180525720Y-72593560D03*
X180525720Y-70053560D03*
D10*
X180525720Y-67513560D03*
%TD*%
D12*
%TO.C,REF\u002A\u002A*%
X186500000Y-55400000D03*
%TD*%
%TO.C,REF\u002A\u002A*%
X116200000Y-145900000D03*
%TD*%
%TO.C,REF\u002A\u002A*%
X186500000Y-145900000D03*
%TD*%
D10*
%TO.C,Ctrl_In*%
X125500000Y-125950000D03*
D11*
X125500000Y-128490000D03*
X125500000Y-131030000D03*
X125500000Y-133570000D03*
X125500000Y-136110000D03*
X125500000Y-138650000D03*
X125500000Y-141190000D03*
X125500000Y-143730000D03*
%TD*%
D12*
%TO.C,REF\u002A\u002A*%
X116200000Y-55400000D03*
%TD*%
M02*
